<mxfile>
    <diagram id="YbcnzTkP-DobEbBIM5Z-" name="Page-1">
        <mxGraphModel dx="1133" dy="800" grid="1" gridSize="10" guides="1" tooltips="1" connect="1" arrows="1" fold="1" page="1" pageScale="1" pageWidth="1169" pageHeight="827" background="#ffffff" math="0" shadow="0">
            <root>
                <mxCell id="0"/>
                <mxCell id="1" parent="0"/>
                <mxCell id="2" value="" style="shape=image;html=1;verticalLabelPosition=bottom;verticalAlign=top;imageAspect=1;aspect=fixed;image=data:image/png,iVBORw0KGgoAAAANSUhEUgAAAkAAAACgCAYAAADkQdOdAAAPbnpUWHRSYXcgcHJvZmlsZSB0eXBlIGV4aWYAAHjarZlrbiy7DYT/axVZgl6UxOXoQQHZQZafjz0zvrZzAgTIteGZOT3dapEsVhX7BPvXP2/4Bz+lSw5V+mjaWuSnatU8+TDi62c+rynW5/X54WN+H/1xPMz3NXydYuG9vP452us9fY6/L/i8p8kn+bbQ2O8v1s8vtL7XH78Wet+o+I58b+e9kL4XKvn1RXovMN9bbTr69xCWvd7PJ5Lx+gv+ouc59WuR3/+unewd4T4lZyupRF5zya8NFP9LoUw+CK+pkA4/6TmivJbS3zshIX/KU/y2q/C7Kl+fflWl9j8XpbTXGYEDP5PZvt7/eDzJn5MfnhR/u3PZ70/55/Emf+X3e5L9794zwr32im7WRkrbO6hPiM8nTlwEV57LGr+dP+Fzf36V3xFA76Y6J+64+N1JUybjN9V00kw32fO+02aLNVvuvOe8KZQfG6VnzbvEQJ2q/6abO7U6ZVDMTXkLR/PXXtJzX31ut9PgxidxZk4slhwKwV/+jt//utC9DvmUPJmUPj31SdlByDa8cv7KWRQk3Q+O5Enw5/f3j9e1UEF50jwIcMb1WmJJemPLcVSeQhdOFN5fbZH6eS/Ahri3sBmwX1NsqUhqKface0rkcVCfyUIjl5oXJUgi+bDLXEtpFGdkvzfX9PScmyW/DsNZFEJKK53S0EzUqkJs4KfXAYamFKki0qTLEJXZSqtNWmu9OfnNXnrt0lvvfXTtc5RRh4w2+hhh6JiatUCOok27DlWdk5tOVp5cPTlhzpVXWXXJaquvsXTNDXx23bLb7nuErXuefMqBJ047/YyjZ1oyoGTVxJp1G6Y2L1C75dYrt91+x9U7v6qWwqus//H7v1ctfaqWn0r5if2ralza+2eJ5HQiXjMqlmui4t0rAKCz1yyOVGsOXjqvWdRMV0hml+LFOckrRgWrpSw3fdXur8r9qFuo9f+qW/5ULnjp/o7KBS/df6ncf9btD1U7rjY7lvBUyNvQkxoL7ccJNtjOlkV8LKRb5pmVRcq45xDr0gsV1XlXLL3ldZKEE2XekdaWRJBk/iTuG6vFduvRez3lS+x0S+WOlU1q6quixPu61lOBy1uYR4ouG7Vw4y5lsJl1sh2UcNpaGaKlb8c6i7RanxTs7m70J60JT3d0hABDF42VoCHR3W/JbaokXzl3AX8aRVh35qpX2M9oFRVI6+za5p7kPKMWSYwWiRcUHShiqi6pa3bI2PsemN4pbR7PCAAzSrArSE3TZNZxdpmgstccrQYBRZ426m+rtgM8V+yD1bl0tyS9tkVbkvVepBnlUDDUMp3Xxmpyx/bw6bUyD6ICzltb03YvZ0+oa+isO7KjdEo+KHzXDDlJukTah+25LXv+wOeKOfS7FuAH7m1sAoTo8hgAXWOHtivpx3uBh3UVZvOTgIs5g0oacmuqgLfQIqP9OPzt9LQkXhrm7okOlai2Uu733Jy1FwJQmqLVlRY9EYxPdaTtm4QURvGdr02uTJMzgK66ObMQIWmdPVEAsX0SocdWtlqCj6jaAu5VFuDIwJsNSVkTDriOapBKu57GfqKyw57ksGEwGOksr/52JdCbA6DabaU2sabYoDOHljLnSGdEQLWOR93lxlF2Wb0UdrvMRM4ZC5Go2yrtPtkR6MN6KnAp0ebqdSmWpKEpsZvKHvbAI504H3yooTvS5xUaPprSgKwY6AGOqabWrwJR7R2o0K82IOnW115Z2VdPrdLMbYpnx4aQyWjW2QDhLpq208c30dER+Ci3ShubGPem2Y2ckHKxqDeVo7MZua9r70bSc+1Qt3citQqGa4coDhXRCsKmAk2pl17sdFvbqRkk0kYagCPPJCCgQI0zH2gB+C4CVMNEUIBzYR/nzwnFHvB0aTWCkrhoBVh6WadktBG8CaMlqfGC8pspBGUaANKyyrGxU+a6nn0ntcDXBTA1mnbAJSxvly61pjQ+NS7HriNyQpxrUqY2w8XwdZeXSK3yJZORzNByh4iM7os0vD3tU/zagfG6Dxzb0wAJ07rjjQE+t9YPerZhk8nbBRGyKZkeskw3y+jwxqZVGi5QJkxFYhNSse+Jd6W5MewRDk57m2c/F6ykV3uiFNRI0gETC0XSM+rp5HqpXvSy7aywvG5sKXICBQVB/Q7wPbvTQxXKYC/ed4UAFoMIdLFHjVxknYJtToGXFqoCHtIhk6QoMx0BFSaYLAC9wcFoIJmJ0Nms4IwMnsWHeitOVjY3pOcUfKxJE51xN/m+bQR6dtA546ANIHS0DS/2QkuSOdflNbWlVeFe1LDCAzvdjrxXpZgb7lVULu/QCjvAcI58TiTmSsPWdS5MplBM63YzHAg1r3UQKfZijtUzJk7Daa8/ihrYRadvtZJBI/En4943w9Lwwm24DG3KLLC3lMrYKF2P343CkKZ7QZN2iaEvkJkyXYuw4DVdjc4Gcm2d2BO61AaNWg23AmEC5dxjWTqX0SG1AuXmPE+LdC3QadVhBWfQx2wKZaLiCuCcL0kExSFZkC9pPaQ+OmFsIUiwRKtIh2qZZA6oodkv591Fc2YyOgfyo6idDPKwocPskk+BN7utmI1IM29kHrcUJzs6t04MJZQDl9CyZETXE5QdrEwC4NBHRNAZagADW0K+RV0BPJqDOV4lkF1n47XZLLJMylc1zJeCrjL2KEYBd14bo0Avs/YxHGFGixMr6ca7LDkaKMUhP202Ug18KJAjkMknVi7xCY5sbWEHsIWzQgf0hwqd3Soeq/oZtgNuQkDOjQ1PTAIace7v7e5tVh7S0EcJqzDwfb4XjGA70J97yJWbYw3jk6NrLK5EWzFORwUZSvQAR+R7TIQMozNAEk7JIAM0bdE9JUO19dKnu+HiuuEiJv2H/72HW034hUaBraklDpCYTvE0sQGlzYigJkMRyCCcTSdM6QvRK2STYqEr8Cl2S11rWKssBtBT7y4Fn4WPwiJjp+/BbZ3bG6tZCRcvsnYfUjYgx6SAexmKnxoZzgKKC1A9HpS6rkPWD24pU8RWfMreSmpwbIux47pjmu1inJfPHEy8/XJzagAzofwwuV0Ag7eGUlYmrI5fK21dwQu7owiNhqUWIKEhvHTJU5/1rg+BINXwFUFM1+BWoJRuslazjE+HhhfmMPaAinGVKmnEXuJCQDZubsLcNDlqyZTgJuHguGiWBERB1H32apwy2mEIXDnUdmn7iSEDjXDogx1IN7nVJst4gFkg8or3NydGXYzogv2xkwCcWwSauAWUIjVMxboZlUa68KIuNhN+qHI2Z2KOZ4F3Fuax7g7aiNVoE3xxswse4PEA2aVewYItliOYDIysLq83BnI84tVQe4h2wElaN/PS6CRgGq3SsDdwww2ZAtCckXHJMEqvZC/Nq7nzxAWZL8RgDV8/7c6ecfoj4t4RCpiB3VGd8JQMBSNL8KtVuBsSxDoVTCpX0iLYt2pFUV9AMrt7HZgIn5L9GU51Faoz2PH8JzetviTEoxAVpZeBj8BD1QoPYYLsiFMHzMH0Qb3MnRn8V/dhutyBMaaimw2U328QMihovCxn81Y3F33B5nU499KMSHvEfe/oRNgew070GVpdGF/EExMCyz+7dGNpGbqKZIphIbmcLSZaRq0EO+BoGsoLEzC5Bv7oFVIEP20sUfWJDcOF/yQb9Is18dkNg8t8h9v0e2HxEJ5jDFpuXOeg1wx69l7HBzHqRvoAuiZsWCmxARSXg3OW/PAwV0esFPq6/TlScqjS1Ni3QBtn8IrwGb7geYLDwBih+Y7Lypku9oeOsCljNKLYl2vIhHKRfXI3maZjrSkYkTAgk2FolikYQYHjAHmmOq4CjK3YXgqC838wdtIDeqRqZ2beauCCCXJ8ToCbcbTnqdl5ypU3wz5Fy+wWg1XJMq6ebxkvh5cDx4fkPLazh20Jtm3sRJ3FMZzMENSdtNEVxiRPweDWy6zHsN3cgzBXYAsgYaqwVXC+VUNcaAjhUbaxMBoIWkGo+CdWm2ockIXFYF7tmH6Sdd1oZawTR1lnSembBLAQRcXlT1gNrSb07o8fUoL4MB2M/IBsAEIDZ7xegr8x0/CnVUjqpufx3wrkqvpD3lgZMzeUPEHvUBWHCBSCbG0GEZZgqLzvFR/APmuWz/Hw6wvYxW0MTM/OCBhdwDrUgnl8npuB/41G+/mHWaZ+HQ8/v5DLrhLp8OEFYnFkG4OW0Sv9/oqQmehppehCxdzvGK7sANvE+AuMIdPlQKZvacd5IgvhqNxiJsUHinsMxYEUrHosDNPoCyMEOcPn4KEja3lC0CIfzB6TbF7jjhlHgi6CgJeOh/6MT3/65A+OKXILXqQRcVgoDoDiDoInQmkYtZgD/eELfro5whNjCbJWkBzF7efrdfDFQVgMawy9/tApelN61QpjS2HuQ0gY5Zs/uWBqT6BtRhcxURr8NaN/tQDl/85ePqE8dNaVjmR0Jy/wO5MWIEiAFZmICc8Bw1/PDR3c38NNqNxvOkSnP4+C7P1RRXF6MqZZkOTmejpnRDAuzsxQGzpPnBnkP9YVrAS0Ea6REyvgQkYQG9gaAUWK+IQ1w5Di3GQ3SM0MC8MEzWCBT2kHMmG4vD3SIsCjESzzOLJwzOkHg3IzFLEwmG65RwPgmBDCRVKwopGR0J8PXYqPsGJuCE0AEROBdMOgSEJswTduerlaMHEjho8tZ+kzbbZn3Ww+2G7s2x0numsLh7FZfWrtTF3Nn0T4wsgDpN9AqwOgNAzCdiiP5tTBiqSjMyA24IU1bW6P8VY43uxPFT0WhjX2QrzqPE7ZDCmZLEj/wtcEPUhVnm7ln/HWOzIzr138G9Hi2aZXnIEJD8bUAClgtjB5C8ixScZ0Y4K7mB8cwHmUY7upBuZ8PgGzwyhJH3JUaR+U2sXajZ3ScG7s3ODIYipDVhUx9eATdX3exP+vivfw+fCH9+KlZ5yHsguWE7rWyEiC2ntQvp8xUH782GWhATSY1kkYNwbhx/VbQS2ZRCiZfaIzA1kl43iR5eMVHXaLj4MkTEjYYFz3NvaJefn/llxTzwYUy0xNQ/jTD/QjIfhutzfhgjV5sRcUvyOUTj8nLYEmpNYwivmgjalO6amXP7ZybNblthDuyJDjOAlXkhxmDMo4v4Itxa0iGoF9v3hulEoO4mVFhzfAhJPiedR84bxJiPojx4YdQTfajeY+J3qORh0B3B9nYrLmXr3QKsgdREEnMJRCe4K/rAwI/sSIEuNrbSE4pOB0zC1KCKh2QMZux0zCSvBwjOHfk3S8bHh6ghwAAAGEaUNDUElDQyBwcm9maWxlAAB4nH2RPUjDQBzFX1NLi1Yc7CDikKE6WRAVcZQqFsFCaSu06mBy6Rc0aUhSXBwF14KDH4tVBxdnXR1cBUHwA8TNzUnRRUr8X1JoEePBcT/e3XvcvQOEZpWpZs8EoGqWkU7ExVx+VQy+IoA+hBCET2KmnswsZuE5vu7h4+tdjGd5n/tz9CsFkwE+kXiO6YZFvEE8s2npnPeJI6wsKcTnxOMGXZD4keuyy2+cSw4LPDNiZNPzxBFisdTFchezsqESTxNHFVWjfCHnssJ5i7NarbP2PfkLwwVtJcN1miNIYAlJpCBCRh0VVGEhRqtGiok07cc9/MOOP0UumVwVMHIsoAYVkuMH/4Pf3ZrFqUk3KRwHAi+2/TEKBHeBVsO2v49tu3UC+J+BK63jrzWB2U/SGx0tegQMbAMX1x1N3gMud4ChJ10yJEfy0xSKReD9jL4pDwzeAr1rbm/tfZw+AFnqavkGODgExkqUve7x7lB3b/+eaff3A9zgcmstP2RwAAAPnGlUWHRYTUw6Y29tLmFkb2JlLnhtcAAAAAAAPD94cGFja2V0IGJlZ2luPSLvu78iIGlkPSJXNU0wTXBDZWhpSHpyZVN6TlRjemtjOWQiPz4KPHg6eG1wbWV0YSB4bWxuczp4PSJhZG9iZTpuczptZXRhLyIgeDp4bXB0az0iWE1QIENvcmUgNC40LjAtRXhpdjIiPgogPHJkZjpSREYgeG1sbnM6cmRmPSJodHRwOi8vd3d3LnczLm9yZy8xOTk5LzAyLzIyLXJkZi1zeW50YXgtbnMjIj4KICA8cmRmOkRlc2NyaXB0aW9uIHJkZjphYm91dD0iIgogICAgeG1sbnM6aXB0Y0V4dD0iaHR0cDovL2lwdGMub3JnL3N0ZC9JcHRjNHhtcEV4dC8yMDA4LTAyLTI5LyIKICAgIHhtbG5zOnhtcE1NPSJodHRwOi8vbnMuYWRvYmUuY29tL3hhcC8xLjAvbW0vIgogICAgeG1sbnM6c3RFdnQ9Imh0dHA6Ly9ucy5hZG9iZS5jb20veGFwLzEuMC9zVHlwZS9SZXNvdXJjZUV2ZW50IyIKICAgIHhtbG5zOnBsdXM9Imh0dHA6Ly9ucy51c2VwbHVzLm9yZy9sZGYveG1wLzEuMC8iCiAgICB4bWxuczpHSU1QPSJodHRwOi8vd3d3LmdpbXAub3JnL3htcC8iCiAgICB4bWxuczpkYz0iaHR0cDovL3B1cmwub3JnL2RjL2VsZW1lbnRzLzEuMS8iCiAgICB4bWxuczp0aWZmPSJodHRwOi8vbnMuYWRvYmUuY29tL3RpZmYvMS4wLyIKICAgIHhtbG5zOnhtcD0iaHR0cDovL25zLmFkb2JlLmNvbS94YXAvMS4wLyIKICAgeG1wTU06RG9jdW1lbnRJRD0iZ2ltcDpkb2NpZDpnaW1wOjgyYTNhZDg0LTY0MjgtNGU5MC04Zjc5LTVkNDdmNzUwODZmZSIKICAgeG1wTU06SW5zdGFuY2VJRD0ieG1wLmlpZDpkNmQzNjZkYS04MmY0LTRhMzktOTFjNy1jMDUzMzk3M2Y0ODAiCiAgIHhtcE1NOk9yaWdpbmFsRG9jdW1lbnRJRD0ieG1wLmRpZDphMmI5NjdhOS1mYTBmLTQyZWUtOTk4NC0zODkzZTBlYzQwNWQiCiAgIEdJTVA6QVBJPSIyLjAiCiAgIEdJTVA6UGxhdGZvcm09IldpbmRvd3MiCiAgIEdJTVA6VGltZVN0YW1wPSIxNjIwNzIwNTc4MDAzMTgzIgogICBHSU1QOlZlcnNpb249IjIuMTAuMjIiCiAgIGRjOkZvcm1hdD0iaW1hZ2UvcG5nIgogICB0aWZmOk9yaWVudGF0aW9uPSIxIgogICB4bXA6Q3JlYXRvclRvb2w9IkdJTVAgMi4xMCI+CiAgIDxpcHRjRXh0OkxvY2F0aW9uQ3JlYXRlZD4KICAgIDxyZGY6QmFnLz4KICAgPC9pcHRjRXh0OkxvY2F0aW9uQ3JlYXRlZD4KICAgPGlwdGNFeHQ6TG9jYXRpb25TaG93bj4KICAgIDxyZGY6QmFnLz4KICAgPC9pcHRjRXh0OkxvY2F0aW9uU2hvd24+CiAgIDxpcHRjRXh0OkFydHdvcmtPck9iamVjdD4KICAgIDxyZGY6QmFnLz4KICAgPC9pcHRjRXh0OkFydHdvcmtPck9iamVjdD4KICAgPGlwdGNFeHQ6UmVnaXN0cnlJZD4KICAgIDxyZGY6QmFnLz4KICAgPC9pcHRjRXh0OlJlZ2lzdHJ5SWQ+CiAgIDx4bXBNTTpIaXN0b3J5PgogICAgPHJkZjpTZXE+CiAgICAgPHJkZjpsaQogICAgICBzdEV2dDphY3Rpb249InNhdmVkIgogICAgICBzdEV2dDpjaGFuZ2VkPSIvIgogICAgICBzdEV2dDppbnN0YW5jZUlEPSJ4bXAuaWlkOmM1YjkxMDY1LTZlY2UtNDFlYS1hZjdkLWQ2ODdlYzNmZWRlNiIKICAgICAgc3RFdnQ6c29mdHdhcmVBZ2VudD0iR2ltcCAyLjEwIChXaW5kb3dzKSIKICAgICAgc3RFdnQ6d2hlbj0iMjAyMS0wNS0xMVQxMDowOTozOCIvPgogICAgPC9yZGY6U2VxPgogICA8L3htcE1NOkhpc3Rvcnk+CiAgIDxwbHVzOkltYWdlU3VwcGxpZXI+CiAgICA8cmRmOlNlcS8+CiAgIDwvcGx1czpJbWFnZVN1cHBsaWVyPgogICA8cGx1czpJbWFnZUNyZWF0b3I+CiAgICA8cmRmOlNlcS8+CiAgIDwvcGx1czpJbWFnZUNyZWF0b3I+CiAgIDxwbHVzOkNvcHlyaWdodE93bmVyPgogICAgPHJkZjpTZXEvPgogICA8L3BsdXM6Q29weXJpZ2h0T3duZXI+CiAgIDxwbHVzOkxpY2Vuc29yPgogICAgPHJkZjpTZXEvPgogICA8L3BsdXM6TGljZW5zb3I+CiAgPC9yZGY6RGVzY3JpcHRpb24+CiA8L3JkZjpSREY+CjwveDp4bXBtZXRhPgogICAgICAgICAgICAgICAgICAgICAgICAgICAgICAgICAgICAgICAgICAgICAgICAgICAgICAgICAgICAgICAgICAgICAgICAgICAgICAgICAgICAgICAgICAgICAgICAgICAgCiAgICAgICAgICAgICAgICAgICAgICAgICAgICAgICAgICAgICAgICAgICAgICAgICAgICAgICAgICAgICAgICAgICAgICAgICAgICAgICAgICAgICAgICAgICAgICAgICAgICAKICAgICAgICAgICAgICAgICAgICAgICAgICAgICAgICAgICAgICAgICAgICAgICAgICAgICAgICAgICAgICAgICAgICAgICAgICAgICAgICAgICAgICAgICAgICAgICAgICAgIAogICAgICAgICAgICAgICAgICAgICAgICAgICAgICAgICAgICAgICAgICAgICAgICAgICAgICAgICAgICAgICAgICAgICAgICAgICAgICAgICAgICAgICAgICAgICAgICAgICAgCiAgICAgICAgICAgICAgICAgICAgICAgICAgICAgICAgICAgICAgICAgICAgICAgICAgICAgICAgICAgICAgICAgICAgICAgICAgICAgICAgICAgICAgICAgICAgICAgICAgICAKICAgICAgICAgICAgICAgICAgICAgICAgICAgICAgICAgICAgICAgICAgICAgICAgICAgICAgICAgICAgICAgICAgICAgICAgICAgICAgICAgICAgICAgICAgICAgICAgICAgIAogICAgICAgICAgICAgICAgICAgICAgICAgICAgICAgICAgICAgICAgICAgICAgICAgICAgICAgICAgICAgICAgICAgICAgICAgICAgICAgICAgICAgICAgICAgICAgICAgICAgCiAgICAgICAgICAgICAgICAgICAgICAgICAgICAgICAgICAgICAgICAgICAgICAgICAgICAgICAgICAgICAgICAgICAgICAgICAgICAgICAgICAgICAgICAgICAgICAgICAgICAKICAgICAgICAgICAgICAgICAgICAgICAgICAgICAgICAgICAgICAgICAgICAgICAgICAgICAgICAgICAgICAgICAgICAgICAgICAgICAgICAgICAgICAgICAgICAgICAgICAgIAogICAgICAgICAgICAgICAgICAgICAgICAgICAgICAgICAgICAgICAgICAgICAgICAgICAgICAgICAgICAgICAgICAgICAgICAgICAgICAgICAgICAgICAgICAgICAgICAgICAgCiAgICAgICAgICAgICAgICAgICAgICAgICAgICAgICAgICAgICAgICAgICAgICAgICAgICAgICAgICAgICAgICAgICAgICAgICAgICAgICAgICAgICAgICAgICAgICAgICAgICAKICAgICAgICAgICAgICAgICAgICAgICAgICAgICAgICAgICAgICAgICAgICAgICAgICAgICAgICAgICAgICAgICAgICAgICAgICAgICAgICAgICAgICAgICAgICAgICAgICAgIAogICAgICAgICAgICAgICAgICAgICAgICAgICAgICAgICAgICAgICAgICAgICAgICAgICAgICAgICAgICAgICAgICAgICAgICAgICAgICAgICAgICAgICAgICAgICAgICAgICAgCiAgICAgICAgICAgICAgICAgICAgICAgICAgICAgICAgICAgICAgICAgICAgICAgICAgICAgICAgICAgICAgICAgICAgICAgICAgICAgICAgICAgICAgICAgICAgICAgICAgICAKICAgICAgICAgICAgICAgICAgICAgICAgICAgICAgICAgICAgICAgICAgICAgICAgICAgICAgICAgICAgICAgICAgICAgICAgICAgICAgICAgICAgICAgICAgICAgICAgICAgIAogICAgICAgICAgICAgICAgICAgICAgICAgICAgICAgICAgICAgICAgICAgICAgICAgICAgICAgICAgICAgICAgICAgICAgICAgICAgICAgICAgICAgICAgICAgICAgICAgICAgCiAgICAgICAgICAgICAgICAgICAgICAgICAgICAgICAgICAgICAgICAgICAgICAgICAgICAgICAgICAgICAgICAgICAgICAgICAgICAgICAgICAgICAgICAgICAgICAgICAgICAKICAgICAgICAgICAgICAgICAgICAgICAgICAgICAgICAgICAgICAgICAgICAgICAgICAgICAgICAgICAgICAgICAgICAgICAgICAgICAgICAgICAgICAgICAgICAgICAgICAgIAogICAgICAgICAgICAgICAgICAgICAgICAgICAgICAgICAgICAgICAgICAgICAgICAgICAgICAgICAgICAgICAgICAgICAgICAgICAgICAgICAgICAgICAgICAgICAgICAgICAgCiAgICAgICAgICAgICAgICAgICAgICAgICAgICAgICAgICAgICAgICAgICAgICAgICAgICAgICAgICAgICAgICAgICAgICAgICAgICAgICAgICAgICAgICAgICAgICAgICAgICAKICAgICAgICAgICAgICAgICAgICAgICAgICAgCjw/eHBhY2tldCBlbmQ9InciPz7Dd4EuAAAABmJLR0QA/wD/AP+gvaeTAAAACXBIWXMAABcRAAAXEQHKJvM/AAAAB3RJTUUH5QULCAklAWkWVgAAIABJREFUeNrsvXmYZEd5p/tGxFlyr726qvddvUpCgATYDGYzm/E2tgGBAQsEGA9jj8cM9vh6u499n7nermGwjSVASBghwObaXAPG7BJCgCS0dUvd6kW9d+2VWbmdLSLuH5ldi7oltZZutaR4W1mpyso8JzJOnIhffPF9XwgcDsc5503X3i+EMcpaJEIoa430lFRSoCwobay0BqmUCH0pQl+JnJLkfCnynpRFJcgJCITAF+ABngAlBZ6QwpNC+FIQKClCJQiVknkpCJUglEL4Anwp8KVACpAgJCARKOg8ROfZQ6C65/CFEN1nfMAXiMXvESx6dI4LnP66QCy8Lpa+B8AC1i76fyzd/05/2DP9btFAZrEaSK0lBTJrbQqkFrKF95ABBtDd1wxYYxHGWGuMJbWQamsTY0mMJdLGxtrYSBsbd16zqTU2M9ZmFjF/XNv5bKIt7cyYVmZop9pGmbFRqm2sjY2FxCgpjACtDVobo4WQBmu1EBgrpf7c1dusu2scjnOLcFXgcHS48pr7PGNlDkxOSplXQuQMNtDG+goRhr7I5TxZyHmyFHqi4ktR8iR5JUQoBIFE5KUURSVFWUkqSoqihJwU+EIIKQSeQPhCEAhBTgqRE4JACgIhhCdBCoEVQlghQAiBFEghxILC6KoJ4e7cC4pTKszYRQrNWozFWGuttQhrrbAWYcBYazNjSWxHTMXW0raW2GIza8mstcZA2hVfTW2Z09rWtbVNa23bWhJtbJxZ2qmx9VjbRpSaepSZVpzaSGNjT4pMQJwZ27bWRgIZCWGiG9+zM3NXzOFwAsjxDOOt1+4SgFBSCikQqbZSIAuepKKE7VFS9Fhs0VrC0JP5nCdLeV/2hp7oDZQoe1Lku8KjKIXoUZI+KURFCgpKCCmlkFLgSynySghPSpTqiBeEwAo6CqQjSMQSk4bDcf5FV0doWQCLtZ0fwlrQ1hpj0Nra1JyyXBlrdMfK1TLWzmnDrLG2Zq1tGkuUGdtOtK3Hmam2M1uLUlOPM9MWglggmpkxVWPtXGblnDW25SuMRdhMW2sF9sartzvLlcMJIIfjjFaWj+wSJo9vjfV9KYPUWN+XoljwZW/oyb5AiX4pbFkKkfeVLIWe6A89OegrUfEEeSFEUUhRUYKBroApSCGskgIlhe8pIZUUQi1WJcI1dIfjcYmr+R8dtLVoY21mrNXaptpYY4yV2tI2lqq2dsYaW7WWVmZtO9W2FmdmOs7MTJrZhsG2jaWeaGbizMy2UlNNjW36SmSxtrG0pLIl0s/+thNQDieAHM8Q3nLNrmFPirK2tqikLJR82VsO5WDOk0O+FGUlRdGTYsBXYtiXol9JkZeSfEe8iB5PioLqOKZYKYXsChnXMB2OZ5mg0saijcUYa4xFaGPJjG1pa2vGUDUdP6tWauxMqu1EZuy0NraZGjsXZXa6nujJRmKq2piWFKKZaVO/6b07J1ztOpwAcpx3fu2T93s7lxX2D5WDUV8JXwqEEMJ2n5GudTkcjidJx6/KYizWWiu0xWbappP1ZOze8daGT121zfk0OZ4QnqsCx5OhFKpyOacCJ6odDse5QHYd7dTCYrbAJ2gnquQ6G8eTaluuChwOh8PhcDgB5HA4HA6Hw/Esxy2BOZ4Up7LRORwOx/nuexwOJ4AcTgI5HA4ngRyOx4FbAnM4HA6Hw/Gcw1mAHG4i5nA4HI7nHM4C5HA4HA6H4zmHswA5nhTOA8jhcDxdfY/D8WRwFiCHw+FwOBxOADkcDofD4XA4AeRwOBwOh8PhBJDD4XA4HA6HE0AOh8PhcDgczyhcFJjjyWHBunAMh8PxNPQ9DseTwVmAHA6Hw+FwOAHkcDgcDofD4QSQw+FwOBwOx7MM5wPkeFy8+e/vk1YK35MEibF5C8LVisPhON9YEKm2/W+7dnc7NTYR1qY3vW+ncTXjOFvc4PUc5y3X7AotFH0pKtpQ9JUol0M1WArkaKBEnydE2VNiIPDEqC/FgJKiIIUoe1IMSEkl1dYfLgeuIh0Ox3llop7gK5Eaw5y2dlobW9fGtlLDTKLNySwzU9pQj42daSZmbC7OplJDXUnRTLWZw9K86b07YleTTgA5nuG89ZpdIlBCaCukxfZ4UgwqIYYttqcUqP5KTq3Ie3LIl6JHSoY9JVd4kj4lhK+UyHtSFj0lQiVACIEUIKV41AZiLUw1U4ZKvrsADofjvDLZSBks+ohH6aQsYIzFWLDWoi1k2saZMS2tbUtbm2aG2UzbE9qY8cxQa2dmci7WJxqxnhIwpy0TmbFTElGTEpNkxn7mPTtcDJoTQI5zyZs+tsvzlAgthJ6gXAzUaKjEcgl9oS/7ioFaGXpiuCNqxJCSYrmS9HlSCE9JL1DC85QQp2SMeIqvthNADofjQhZAT7Rf64gnS6qtTbXVmTap1tZmlllt7Elj7ERqbC3O7EQz0cfizMway2yU2eOt1Ixpa+oWERtt45vetyNzV8sJIEeXN39sV15K0SMEvUqISm9ejZYCuTKQot9Xcjj0xOpAyUElRVlJMexJ0e8p4XlS4CkhPHlhXDYngBwOx7NNAD1RMmPJtLWZsTbTRmeGGW3MhDbUE22n4swcybSZSIydbSTm6Ew7O2ksc9ZSNcbWbnrfjra7qk4APeN427W7haeESIz2FHIwVHK5sXawHKrhnpxaU/DlMk+KQU+JNb4Uy5QUoa9kyVei5EkhpRBICVI8sy6HE0AOh8MJoMeHsRZjOs+ZsSbVtplqU9fGxqmx45m2RzJjJ9uZmai29UP1RE9KxFSs9Qmd2akgUFmqjf3M1W4Zzgmgc8xbrrkvUFLmrCFXCOSygi9XKxjOB3JZMVBrc54YVlIMeVKs8aQY8JWQvieDQHWEDeLZW8lOADkcDieAzlH/2v1hrCXR1qSZSVNtdWbsdGbsEW3sRNRZgjvUTs24tnainZojzcSMC0mUaRvd9N6diWspTgCdkTddu8vzEH0C2+8rOdBf8NYUPLEyUHI458v1oRKjSoo+T4kRX4qKpwSektJXwilHJ4AcDocTQBeMWEq1JdPGZtra1Nh6x7HbVmNtT0apOZhqO9lMzdHpdnYo1XbGWDttBNXPXf3c9VF6Vjadt127SwghpbWmx5dyuRCMFgM53Jf3NhR8OeJJsdz3xAZfil5fyXLgibInhZRSoKQTN49HAE03UwadAHI4HOeZqUbKgBNAj0skaWMxprP0lmS2nmpTT42tppk9mBl7vJ2Z8dl2dqARm3EhGIszjgshamDMp9+9/Vm35PaMbDpvumZX4EuRl1L0VAK51hdidc6XI+VQbcp5YlQpsdKXYp2vZBB4Igg86aln+XKUE0AOh8MJIMeTFUlY0NaSZFYnmYlTbZLM2MOZtoejzJ6sx/pAlJqTibGH64k+hGUuMbZ903t2POOW2y7IpvMr1+wqhEIMaOjvz6uVPaHaECgxkvflxtCTKzwlBnwpVvpKFnxPCF9JpLsJnAByOBxOADnOOcZCqg1pZk2qTZQaeyzrRLodi1JzINZ2fC4xB2ba2VEsM6m1059/z47Wc14A/erHdwtrhRLCDvtKrPWlGB0q+huLvlwdeGJNoMQmX8mS74m+QMm86i5LOYHjBJDD4XA4AfTMEEjaWLSxJNq208zMpto2Em32JZk53EzN0almti8zjCXGHjKGcSWtvv5d53eZ7SlvOm+5ZrdSwuYsolgK5Kq8JzeESiyv5NTmvCdXekqs9ZVcEygRhL4MfCWlANeInQByOBwOJ4CeI2NHx3Hb2DgzSZKZJNX2SKbtwXZmTtRjvTfK7IlI2wP1KDuCEE0D0Wev3q6fdgH05o/d6yklBy1iaCDvre0J5abQk6vyvrwo8OSyzvKUGPQ9KQIlhHLmGyeAHA6Hwwkgx1nStR7ZNDM21XYq1fZYos1YOzV748wcm4vNvql2dgiYNFpP3fS+ix93NNsZm847PnG/0CbzfOmtEEKsLYVy5UBeXZTz5KrAk1sDJUYDT/aGniwp2clM7BqhE0AOh8PhBJDjfIw9uhPNRpyZepKZaqLtiSQze6LMHptuZXsaiT6mrX1IG31CCpXdcIYoNvH2j+/e0JtT2wIlV/Xk1OaCL9d6Sm4MlFgdeNLP+TL0ZGc7KdfOHE4AORwOJ4AcF+y41P2RGWujVCdJZpNE2yOZNvtbmTlSa+s9iTZHa5G+3/MkK1f3hX+9qje30TUkh8Px7EKgZEQhaJHz2/jeHFJoMp0nyUq0khxxWsIin8MTGYPJUqw1WGOw3d1AhQCEREqF8gLnqOl4htzxnR++EsJXXgiEwPbuA2vhaDXa/8Bk+2oB8I6P7x7YOJD767UDubeFnpSuCh1n13E+9RYglaZUZiYJdUaQJnjNOiLLEMYgjEZ0O2d7qjNe9GxPNX+x8GwX/T43MMzk8tVPuGypTTmWHKZmaqQm7s41BGLROU6l0RTzrwsW/nX+IpGsCzdQlKUlx5/NpklMREJKbGO01ZjuP4tdVO+nB0qM+MsZ8oaXvHZkssn4bIRUgoUkn6JzNNt1RLR2/vnUsa3tXNz501jb+R7daAUpBZ4nCTxJT84jl/Oo5H18JS6QDtDSVzzJioEHGKr8gFJuN3EWYk0fCIMULZScpBD+gExvJMkuYabxQiaqOzk6cxFJVnxWz4+j+izN2ZO0a5MkrRpZ3MLoBGsyrNadtmYtQoiOAFI+ys/hFyrke5aRrwxR6BnCC/POAuR4RhFnxhyejm48MBP91nXv2j4933Teeu1uubzkX7lhMPfh/qLf76rK8XQIoPLkGK9+1+sxYYh//NBTWl69fC0/+vPrOLZ+yxP6/EQ2zj3RXRREgVkzhxWWiihRESU8oZj/J2RX7nQesY1o2TZN22TG1GjbGGlSXl16PQPe4Pzx727fQa/sIbYxsY1p2QhrLQIwwmIRCOS84JJIFIICee6M7+CXK28hJ3Pzx/vcbcf456PNRxYKAiSdFBMSUAIUnUfekzQygwG0hVVFjyOtjMyAphvC0SUQMOJLLh8psHW0yPqREsXQO+/tUcmUNYP3sWHkX8kH38PaNuBjCbG2gLUBFgUYjImQMkVJjRARnhpHiTr7T36UE7M7aad91Nv9PFsW/q0x1KeOMnXwLtpz47BIRHthkf7VOzE6pV0dJ27OoNMYax454EYoj9LgWvpXb6PYN4IQ53/e7ASQ4/Ew00yn909FvzXRSG684eodhjPd3Vddd/+GLYP5j6/sC1+mpGtajvMvgLZ/6/+jb/wEmZRkfkCWy6MLRYxUYDRCSIRSHauEtWAMsl5D1KuIeg0RtZFpgtAaIcCGBdK1mxj5+J/T/On/zFf+6CPYJ9Bhn0iOcjA7xN3RHUhr8YTEQ+EJHykClPARSJTwCPDJiZBQ+B2R0RVDBosnAub0NHenu3lf72/Qq/oA2JfsZ3+8l4ZtYGyGxZKQEduUFI2xBolFIfGEwsdDodgZ7uSB5H76ZA+vLv/MvK1p/8k6n7p9nL5QsbwSEISKcqDIewJfSUQ3eEGIrlzrWnmkOGVHsaeMBguWp4dZjWJtaaeGzFoGSwGzzZR2rOnLKy5b30cpd36E0Iq+B7lo+Q3kgjtJs3WkegvYHrQRJJnBkIA1p6QSCB+Bj5IGKUynHtAkWZ4oHeDI9KUEXotmNEAjLj+j79OoPsPYnu9jjSYo9na7/UUWRaMxWUwaNUhbNYxeCKaRXoD0AoSQ3aWyBJMtTfhb6FvB8OYrKPQOOwHkuODQxtpjs/F39k23r772ndsOLP7bab3TJ39t24Err9n1mmo7++CGwfzvl0KVd1XoeHQl9NQdyk9TJtZuxo/aqHYLFbXI1asorSFNsGmCQWDDHLZUwfb0YfyANF9E9/SR5QroXB4d5jG5PMbzyYTAb7cYAQq3fYvSzDT1/qHHXTYPj+VqOdVgMw3TILExmU1IrcbYCGwbiYcvfFIUkWjj4xHgEQgPgSSzGXlVxhd57tLHua56De/u/XXKskKJfMc6YVMSm6CtJsOi0eSFT0UUCLtCKxA5QhESiICCKNIybf4tvo2N/hbWh5sAWN5f4FUbemhnhtR0LDn1WDPXXb0TWJSFQAp6i15XoHUu5/yj61FoT82W7MKs6dSzJzpLftONBItg7UAeJeBr906wY3mJzSsq58yOomTK5tHvsGLgFozxiZPLEcLgqymsjZGyhBSSzCi0CYA2QjQQQqFEESEihDiOEDWMDQj8Mr7Xx6ZlLWaaK0jSPMPlWSbmVj8jb8361FGO3/sNTBYD0K6eRAiBVAFCeUjld6w3QmCtRnohQvnzMxwhRHc5VGN0uiB+hGBo/QuZOXofrdnjHL79XxnccDmDay/ufOYZ2v84nl00Yh0dnG7/2dFa+hc3vHtbfHqffgZu7Ozp8Wfvv2HPty4azH1yWSXc4lS243x0PHljqG7cTpgvILMM1WqgWg28KEJlKZ41yKiNnJtFRm3E1ARKZ0ijsVJhwhw6XwA/wCoPPI+0WKG+obPsJZo1iq3mExJAw/4ovp6hPyvTI3OkNsVYjV3io3NqoUri4aGE1xEsMkcocuRFnoIscCQ9BMAP9CFekxxmW24nOZlnk7+ZcT2OsQZNhrEZmU2p2yZN22bOtDAYPOFRkCVWqOWUVJmWbZFguLHxWT4U/B6+8DHWsmc6oj9QDOYVUkmUEnjdZ8miZTAJ3WBPtLVk2pJoSzPVNFJDIzE0U0MjNbQyQ2YsxlqMPTUeCpSEkieZbmesLPu8aGM/u4/UGKvFvHTrIE+1QTn0m7x488fw1QRRchHG5rqWq4RMp2gD2iiEAE/m8KRA2xxZ5qGNj7Ee2ByWTWRak5mOrU7JAkoaCsEYQV+V49OXsXrgTo5OX9bxKXuG0KqOM3PoXvxcCWvyeLkSQaGn69AsEUJ0rXpdgSskUkqElPN/B4HtWs4WhM2C393yHa8gac0xsfdWJvfdhk7aLNt8xfkTQRYXnuw4vVlYGJuL9+6bjq7621/d8v1HntQ+Cn/39i23veOT9794faT/Yl1/7p2hLz1XtY5zSSwlQ3vuoWf/brJ8kaxUIV62gon+IWSadGJ10qSzzGU0Snn4QuAZg8xSEqk4tGUnvZNjnT7aGLwkYcWeu+fvDGWfmHJLbEJF9bA53EbbtGmYBm3bIjExqY3JbErDtmgTofDICcgJRU50vHVyIiQvQnIipCLKi/rwTnmqukrVzlHT1e4Sl0+KJRaCQJap0IeyoJDkRA6DAWtomCahCAHYbacwaMAn7ysGQoWwllpi8HwIkITC4gsoeJJQCUzXpSfRlnZmSFKN0XZ+yStnLVIJej2FV/BQp8SS6Dx7niRQgtCT5DyJLzs+SkmSccXmfm7bO8237pvgFTuHnzIR5KuYF2/+GGlWJk4HyXSRTBfQuojvzeKpKfJBhK+aKDmBlAmCIpY8xki0CchMHq3LZLqHzPQQpwptYwQpxiqSpIg2HpXCCaK0j20rv8H9x1+JtRd+nIhOI6zRrLj4lfPRXB1rDosETWcZlK6z/uLRo3PtTXe502CNxpoF26C1trN0ZjSFvhH6113G9ME7mDl8N8rPMbT+UteZOZ4WotToQzPRpw5W49+5/qpt1Ud772MKmuuv2lb91Wvuf08tyr6+cTD/vweK/rCrYse5ojowzCVfupGBG/5myes//pvPEVoLYR4tJVmYI5OKxPOoez4W8OI2rf5hNuy5l62/+StnPoGQpE84M7llOpsksjESyRp/FYlNaJgmkY2xVgMGazWxTcnQBCKgKIv0qQEeSvYzZ2tom3Jz/L3TTGmZjUlNTFEW6ZU9rPTXUNNV2jbCYglF0BFRskgoQu5of588OfZG93Fntgc6Z5+fFe85PkfJl7QyQymQvHz7EPtONphrZ/NLWVJJKnkfZUxnc0Nt0dqbjwprJppaO0NmBmMsSsJIJUc+VEuMgKdm/EJ0IvRE95c0s7xy5zA3fO8YP9g7zYu3DD7pCbvAsnrwDqKkjLV5kiwk1ZJUC7T20NF6YEPH8qNqlHITlPP7yQXHEViE8NCml7nWFgS2Y20zCb6XEYo2IDC2iCd7aCd5oqSHamuUQtjg4tVf457Dr73gzQ6N6ROUBpZTGz+ETlod684pfx4EcavG3Ni+Bf+ubuRXUKjQv3pnN+pPIpWH9PzOUplSXQuRh5ByPsoRwA+LVI/uQqcRUwdvp9g/SqF3mevQHOeV6WY6sX+q/YGZmC9cf9W2x5zpnpVF59Pv2WaBz7/7kw/8cONgeM2qvtyrPecg7TgHZEHIze/8TX4yCBj6+J/Pv97sH4K5KoXaNDmt0UJ0HxIjJeqUlaZ3gESqRz6B0U/YAmSBz8zdwF36CD6C/1a+mj7VS0M3liyDCURH+AgfJQLKqkLT1PlfjU+ccdXw1Guj/ipubNzE/WaCXnz+sO9DgCXEQwpFi4RQFCjIIi3T5GPtfz19IF703VYPFvj8PZPsaWt6fMl/2jpEfznACxS1ZkqcGeLUUG+nKNWx4ighiI0lHyiGKyF/+h+HmNaWxFoMnQixNWGDX9jSz9bVFR6abnc3K+4srWEtngCMAWNpthJygeTnLlvGn3zzCCN9OdYvKz2pNjJYPo42vShZRIgUJS2BgczEZHoGbepoE2JMSD6cYMPIBxDCnHackT5oJ6/lG/d+hP7iDKXccUJ/llyQIsQx8B8gDPoo54fpL+/jwPhPsnrwZtYP383BieddsPeQMbrj3+MF9I5u6Op+1Y3qEgipGH/wByTN2dM+m7Zr5CrLGFy7k7hZ7YTGG4kKiyg/XHhf1CSNmhidIpRHrtRHedlGqsd2YY1mYv8drHn+656W6DDHc3DcMNYcnY2+eWAmvvrad249fLafe1xLWh+/auvhd3xyzxuq7ey3Nwzm/6Cc80qu6p+7LHaWfSpJwhy3vPX9bNv2PLQQlE8exUjJ3NAIXhqTpmlngFUKqzysEMSA1RmtXJ6KWhBAJz/wJzz48jcQNGqoOCYp9zA1vPwJlTkQIb9UejN7an9FlQSFZM40OZodRthO/hSNJrEZSSdui1CErPFWM+KtQCyOrOraa04JGAsUZYl3lt/Jh2p/0dko0KYcyo6ihEIhyFkPI2M8FHmRW3QcSSA8RkWRVWJgPidSKe/ztucv4y9uO0lNWyyWSt4nF3qU8z5RoslSTZxq2pmllRqUgMBXDPeEeFJQ05a2WShzBhyINH959yS/NNPm514wylQzZbIWMxPHpNqS9zrLYb6vKISKKNEMlEP+88YePvGjMT70qjWU808scjBQCRaLtSknZi9BiQhP1Qj9GaTM8FQASKKkTK21io3lA/PiR5t1jFd/jVpzI5lRFIImgz3f4YpN1/H9B6+i1s7jq4hSrkYptwxoI0UbKRNyvmW4cpjdx36en9zym0zMfZx61HdB3pc6jcn3DGN0Rhp10iB4YYEsbiGURxo1mTl87yPPoh+6k0LfCKXBlZ22aTRZGoPOkKozZHi5Il6uQNKqd0SQVBT6R6ke2wVAa+YoUaNKrtx/zvsfx3ObepQ1Dky1//Rk0/zV9VdtfVz7gT1un57rr9qSAX/+6zc88O1Ng7lPjFTCnW6vUyeDnmrSIOCeK14GQKk6Q646TXV4FJHGZMrr5KsREmUtMkvQuTyJ8mj09mOPLDTI9uAyxpYth2XLH8Hu8vhYGazig5X3c2v7O/SqPga8YRQC3Q1Tz0jRNsNiOg61KIa8ZXjCQ3bD4LerUX67979hraFpWxRlcb48q4I1/F7pXexN7mdIDZF4bUIRciDZhxY+koBAht1QdwlYfrf0Ti4KtyGFwhc+svs6wMbREv/Xq9fQjDICT5JoQ5JokjgjTQ2tVJOZTn2Ibj7HLDMESuApwSmZ8hO9Aa/Z2o/yJNZCo53y/YfmuPehWZ6/sZ9SIGlFGVmqaWWWrJswEdFxqjbWctmGXr64r8o37p3g5y5fzhPpNwKvQa01TD5ooTOvYwG0BmMlUuiujUpSj3qIMsmKgb/qCDe9ne/tuZbx2tolx5PiVVyx8UZK4RyzrUGGSoeptVYz2wQhGoR+i0BZTm3oPF1fTqP9Ai5b94/cvOf9F6Q/0KkEhVkS4eUKHadnQPmd58n9dzxG+7dMHbyT0sBy4tYcreoYufIAnh+c9jkhxPz5gkLPkr81p4+RK/c94/oexzMDY7Fjc/GufVPRu/7+7Vtvf0L3yhM9+d+/fevt7/j47p+otfX/WjeQuzrnS7chlOPczmz9gGapgpd20vZnCIyU6HyeuFghC7sm+sUDqzVPeTk2hJtZEaymrmsIIC/zXeuPRWPwUR1HU9GJB6uoXiLbnt9sYZ1cQUEWEQhKVJYOKAguzl/GMm8ET3iM+itIbcbGcAupiZBISrJEZBYSHOZlkbwsPGJ5B8oBA+VgfszIjCUMFIWcRz8QeLKzfNWtutlWiqcEnhSd5SxgfU/A5pVLy7p9TQ9fvXuCi7WlnPMonyHnjzaWRpQhBZTzPq9aVeKmQ3UuW99kzdDjy7ispEZKTWp8xudWEqhWN5FhL4K0axlSaBPSiAfYtuIWpBgHYN+J3z1N/HQ6UY97Dv88Q5UDTDdGacRlyvn9lHMtwCfNKkSpR5R6aBMipeHI1Ku4dP3PM9r7ek7Mrr/g7pN2bYJcqR8vyJ1BM1jasydOe1lID+WHSC8gac4S1cZJ2nOExY6o8XMFxBmWlv38wiKA8hfyBQFE9WnXaTnOCVFq0oemo48fqSa/e927ts094cnCkynE9e/eXgd+4zf/ce/XNw/lPtpf9Fc4Y9Bz0PhzjidhpptE0CLwLUhrMUJ1wuLjuOP4m6RkQyMdo8gizSO0OSflCwkYMy2G1DKWqVGapoGxafdUdmELjG40V9u2lxbjMcokkCirEBa0ifGsxBMFlPCQVs7n5+kM4tljHk8bixSCQElKgUeaZJ1IL8APJKEnyUwnyHuwFHQsHtZ2trfQFk+J087hS8mLNvQyXYvMQCRQAAAgAElEQVQZ6cudWbQIQU/en//sjpVlzEN1vrd3ltUDxceVxG605ygnZlfjyZhScBRrKwQe3dB9H206FieDwBpJX/HQ/GePTW97xDpqxRXq7SGw0IqH6M3Xwc5hbIAAcn6zY3FTfcRJwvGZzVy8todtKz7PyZkPXXCh8Wm7SVjsQ5zh++o0IYsXxHNQ6GVo04so9AyhgjxgOXrX12hOHyFu1AjyPYSnLDtnOF4Wt7pWpwKCTvj8qUlH2q53fdLEue1/HM+pIWe6kR7fPx39179560VffLLHe0rC2j/8tov+5Z2fuP+OiwZzf7eyN3zjhbInkOPZgZFyfu8vHeapDgx3skIvojRXRXdN/GJxr3gOLEALthrZFWiGlq6jpI8vcvSrBbN/0zQJRNCxTswLOnMWR5dIIRFWkmHwu3mEYhvjC787sHQGF2P1WVhPxKJBUNNXDk/vDB62JmUR5H0JienkhjkDg5UcD021zrrWRvry9CnBV8bavKGd0ls4e8NxpsFYSU4lZKZMIRwnUC1So0jiQWqttVir5muwmNvdqW8D7aTnUY/d6PrzWCsZq62iGJao5BOOzSwkQKzkp0BoWkmJZvTz9JevZ6D8NqbqKy+s+6Xr7HxGIZxGS/zQBtZdRmV4zZKWN7ThBTSnj85bch61XQW5hQhAqRBSzt9yRicuT4/jqRP22tpj1fjLD05Hv37dVduOPRXHfMry+nzqXduOvflju35xtp29f8Ng7k8rOa/sLtmzX42fhTHjSaOVwnYde2ulynzitiUdcRIhjO4IoyV+xuaclM9iCemE3/sioOD1EIoQuVR+YTo7Z3VyqZz6PtjHLJMQqnvskBRLVU+TEyEFkcfSDXc/dQ772N8xzgxed0PUSimYf3+qDc1Yk/Mkoa+WpoOhk9iwM7iJM55DCCiH6rS/adPJFSNP+QKdspz5ih29ITdPRxyZaNKztvcs5abpbm4LzaQCSYUo7cFYnyQLztg2Q69jGdd2GG3Fo9ZRb3GK8VpnSS4zIbX2CJluzX9GyYRae2HftrnWeiqFGmuH7mDyAhNASWuOLI3x1dLu3RpN1JhdEim4sInwIutmuR8hFV6u9Nj3jpALqRCkXBL1JZWPFeenD3I8u5mLssaBqej/OFJL/vam9+7InqrjPqWJDW96344M+MjV1z3wnS3DueuWVYLLlIuWdzxpAeTNTyLtvCXCUqzPIa2lnctTHRyZf//M6Kr5iacw58YC1F18mrcFJTahJEsoHmaZkpVF77dnbQGSXeuSJzxWeitOrxP0orI8tgXIWLtkqSbVhocmW0SxZrIa8aVDdX56VYlXXzxM4C0MYoWuNVc+iq/vUGXBmtSKM8ZrMZOtlNl6yv6pNm/YPsDa4eK8YNrU3xFAh6ba7DxLAVTOz1JtLY0oitLiowomJdNuBXmPOVAG6vQ6bCaFRYIueJjFaEPXovV1hHjjIsvTBXC/pDFH7/oqYWkAEFiTYbKEpDVLFjUee6YdNQkKveRKfeg0ZnL/HaRRAz9fIlcZojK8FukFZxBe9SX7hPmFXmf+cTy5tmws43PJj/dORVdd886t9zzVxz8nmZ2v/bWt977pH3a/7KIB/cdr+3O/lQ+kcpfS8YSRsrPp6anZ+tQ4q++6jeE7v0fvzf9OuuP53PWeD3Fk47bO4OctCKbz1f8OqSHmdJW6rgGCitdHWZbPOFe1Z5GHSIpHv2WyRcte2VksgWkDnjy1ZAa7jtexBubqMZG2vHlbPx+5Z4piTvFT24bm665wygJ0FhMZa2GiGpEYCIUg04Y1vSEf/v5J/vjVa+gp+l1rS+f53qmIn7GclR+QlHXSZHTB4idTyrkpfKWJ0pB6NPiwiy2wp9zOxWPXd5SeXt85v8lo7yHAMDm3kka8sLQ51+4I23z4bcq5KnPtgQvmdulbtZXGxAHqYw8+5nv93OmZTOqThxnc+EKypE3SqtOcPkIWt7CmM/FuTG5gxcWvOC3Hz8zRXUuWzfKVIdd3OZ4w7URnh2bjj+ybif74s1fvqJ+ToeVcFf5z793e2D/T/uBdJxpvmGqkR62zVTqeTEPtNiAviVl97+3kWnUKJw4z+bNXkr/tG1xy/UdQWWfGL80i68g50t6Lh1qD4b74XnbF93Jb/EO+0voy/3P2j3kgum+J/Hk8PkCh6MywE5twb/RjPjt3A1+t/wsz2dRpFqCU9DGPF3hifhuKRjsl0ZbBks9UpOkvBzw41uQXVhaZamY04gULc6EbBmb0Y9/AiTYsHyzQV/C4Zf8sfQWP0BMkWPaeWOi/errRYkdaGa1En1V9531DpoOutSbi8o2f5DWXvpxX7HwJr7vsNbxq519QCOqL6lsssso8tpty4C39fst6DvHaS9/HRSv+kk2jn+a1z/sltq+8ef4qxmmpK1Sr9BXHLqh7JSz2svoFP0tl9CKUn+v45gg5nxxR+Xm8sEhQ7CdXGVwqrOMWJo0pD60ii9vUJw+x5oU/191Fvmv9mjhAc+bkw6w/Nepj+5a8VugbcR2X43FjLUw20qN3n2i+cf90+3fOlfg5ZxagU9z4np0W+Npbr919+bah3EdW9oW/HCiXGdTxOG8IQC6yoLTyBTQWNTVOzx3fwyqf4re/RO8H/pDp4eV47QWnXOudqyYuCGQn/8nJ7ASH04Nom/If8a28PvwJNtg6H2tez58Ff0RJLnWHO1uvpMxm7InvZ5k3ii9y3B7dyofnPszv9HxwqQCyZyGAFt13pbzH81ZVCDzJVDXCALV2xsbBMpPNlOlaTGm4Y0ULuv475iyWEkNPYiwM9+R45UX9HJ+NQArWhop40QxIdZfV6sYy10wodvPIPLpFrGO9ElhWDvyIQjhBptfhe/cgGGOw8jc8f/0At+y5al6emnkHlLNYclyUKdqTMWuHvs7xmdcw11rH6qGvUW+vZcfqK2lGX+PQ1HYyvWA5KeeqF9w9ExQqLN/xU5gsnXd8ltJDKg+h/M5GqOZhzu3WUp88zMC6Szp1LSVeUEB6/pLIMYC5k/soDSwszc4efaCbabprPassIyj2uM7L8bhItLHHZ5MvPjDV/i+ffvf2cz6zOC9q5DNXbx/bPd6+cvfJ1ntr7WzOXWbH47cAdUVBEGJyeTxraTzvxTS3PQ/R9TtYduJIZ4CN2vOf0+Vz1wmfMvf3yB5GvRUkNkIKn7vT+yjKHiZsiwfj+ztl6mZzPnsLUEhmM9q2xW3tW/n31pfZEuzgQTPFvuT+JctoGfrx1aUQTDdTUm0IfEk+57F+MM9kI6GRWcyizM9e12qUpI9c5ka0YDGabcScqEZEmSUMPSRwMNIcm4kWBFsn8yIWGK9FZ1XmOMvmP5PpMruPvI3Z5ku6QqcECEb6/oG8vzBQGysXSejHFtnz31lFGAsPHHstK/q/z1x7hHxwGCEMG0f/jc5moAvCOvSjC/e+8Xz8fJkgX8ELC529wOajtpZ2/3MTh6gMr0Oqhcg8qTyM1njh0qWydm1s3pk6ac1RPb57yd97V21322A4Hhe1dja3+2TrfXunWm8+H+LnnFuAlliDOp7b11z9qQdu2TSQu260ElyhXArpZ7xlxtqlQSVPJUpreidPMHL0IdJief481eVr2XDL17ClHvq//W/z75/uG8Ra8OJ4YRCU3jkqnyAnO2XS1nB3fBfL5BCr5QBl8syaWTwULd3olIkAH0HatQA9dpkEgQhZpkY5np2kKIrdUVoQmwgWpZow9rGPd3C8QSPK2LayB08JpLXsOlZHG9g33mS44PHpB+usDRUv29hLpjvZj5WAPiUYa2u04YzZmydrMZm29BR8Jmsxe8dbVHxJCnzpYI2qtnzjRIvVe6Z5wYY+9k+22ZxXbOwNmYvNWV0fXwbd9wnGahvpyVcZ6rkebQbI9CihvwsljzFYPsaR6S0dq+Eiq85jttNFf4/SEu14I/mwhpQSrUt4aqYjdotfQ/BBlGwtEpQNnolL/EZnSKlACKonHiTIlxFe0BXXgsbkUUrDa5jY96PTLEDDm1/SWWbUmvG9P8DqBREcFPspD68753Viu/v+ulCwZzbaWE7OJT/cPxNddc07tt5/Ps/tne8ve+07tz7w1mvue/lclPuDtf25/14IVOCawDNYAZ0jyrUZLvrOl+k9eYyBr36e6k//Ivu2XorKMoZOHKbvm19CTi+dJGz54XdA+fRNLGS6Xfb9b1DccgnNc2AJOhXMXpE9vCB4PvvT/bwq/Cn2pntomYSKCBn1VwGQEzkCJK3OphlnN3tHopBs8jexyd/Ef7S/gkKwwl+Lehy37vGZNj84UOVEPeXuI3XecOkyMmP59N2T+EpwJFqwIO1tZ/z+zcfZUvR4xdoKK5cVeW2gGCz4pNoQektn9QdO1rnhxxPsHMojMsMPpiKOP9xaZKFlLB/dNU1pzyxvWF7gykuHeeBYHSUFh6ZarB08PZN14LUZLB+jEMzRXzrEydoarJUEKqKvuA9jchg7QJRuINPLKITfREndFSUaJTuWGU9OsmpgLwcmLn7ErStCv40QGmsV1irGausY7b2LEzNb2bz8H/HUWFeWmm7Z5hYNxM+8Lqx2cj8Te26mPLKZ0tAaJvbcgvSCzpKXn0Mqn6g2xtzJBwkrQ0usOUIqgmIv1hgm9v2I5tRDi3S7YHjzS+b3DDsvfZCbRz9jaSU6OTQT/z+H69H/+emrdrTO9/m9p+NLf+Y9O9vA//yvn9n7zfV94bVD5WCda8OOJYNfu0W5Nkt9xRrG/sefs/3//iAv3LSd4dtvofzvnzvjZ0Y/8oeMfuQP5y0oydrNVL7+L7zmwB7uf9d/Z88lVzwlZctsxpypMaHH2BJsR6PxUHwxuRWTfIcSIctlH5eri1gTdMKlq3oaA1yqVqPwqepZ+lT/acet6mmkUJ3tLUQeT/j8beOT1IgBwbAo0aP6yMxCuPGkmSCzGZ7wzjhLrrUzCoHi1ReVOFmN+P1vHkYAdW1Z63n8zEienrwHFiabKd+djrmvnvLiRDMXaSarMd89XGekEjLSG5IPO+eJM8OnfzxBCoxUQg5NtRjPDO/YUKFUCvinB2boUZIXry6zrOwzPhtz48E5dq6u8L0DVV60psK3HuzsSB5IwfL+BV+gdUP3smXlp+gt3tQd5wRj1W0cmd5KMx5gxcDtSNFACk1PYSHaabjnAdIsTyMJ8dQexqu/wWzjEp63/rdYOXAltx94E814qRgerhzhknW/z5aV6zg49sscndmIFJr1IzcSJRvwvb2LrG05BsrHqBQWdlIf6f8KO5Ie9px8wbyj9gU9bzGa6YO3d/aimzpM7fguQKCTDJ0sHYN02iZpLXxX6YUIKTl657/h5yu0Z48veX/f6kspDqxwHZjjMXXrZD156OBMdPVH3rblm09XOZ7W8PQffvGjD4284up/xLCqFKrtSrqkQc802qmhEDz1zWj45FG05zG3ZhM2biNHV7H6r3+PcP+Cr4HxQ0TX8dKUesGY+d+P/Jc/4t4r309Fp5S/9a8su+3bTP7UG560Jej++F6+G93C3mQ3x9PD5ETIl5r/zA3x17Dd3d0TNNO2yZiZIs6mmdNVvtD6Zz5Qfh8vDC9nrbeaw9lD1E2NIW8Z0In2+mbr35nKTnBXciefb/0zWVbn0+0vMEU0P81tkhBl48yZGh4pSkhe4F/KkewQy71VqNPC5y237+ss3wyUAnpLIa16zPK8x5UXDzHgCR6sJhyeS5hNNCvKAVesKHGkFvOGbQNEqeYnLhpg31gTkWkKoUdvsTPIa2O55UCVq144Qj6Q9BR9VvqSFX15Prt7mj5PECrJ4ZmIQzMRL9nYx96xJi9e28PGwQIrB4scONlgTX/INx6Y4bK1PQghqOSnGem9k+GeW/HU0a6cVQz3nKQdb+Ki5bewYuBjSFFDiHjpAFz6KmuGP8WGZd+g2nwZuWCKavMy4nQzKwf/gNVDe5mau5xW0nFM7y+O89Jtv03o30bo72ak7/NsHP0i64ZvwPf2kw/uQYqF3DlKjrNu+J8Z6rmZON2BlHO0kmUYW6GncIhqcx3aeBf8fVsff4gsqhMU+/DC4pIlro61xy6x+oTlIfrXXEpQ6icsDiCVR2v6yFKLpfIZ3f7y+c1Xz0ffk39Y8k7HhU+SGXNoOvrc3qnoFz/2jq27n86yPO35ee7+0t+1R1959f/bTs2RvKdemvNl3jURJ4AqU2Nc9ie/wcrP/wODD+5i/y+8neX//oUljhxicbh7voTuH0TVOxE5xSMPsf4f/zeF++/qvDdqkhtdw+Htl53xfH7cxk9itOc/YmKa2MZ8ufVV7kt30SOKbA228/etz/KgGaOTZlCQFyHDssKQqFDG5zZ9gB9mu3hH/hcRSGbMJLGNqJpZfhzfwXK1nIrq4WD6IBLJQX2YDd4GtvpbuCb6Eo1uiLtEEOKRYThoJshsg8vDK9ik1nBUH2LGzFHVk6wLNj2s1IJmovnh8SbHqjG9RY+Ng3l2j7eoNVOi1LCpP6RS8Hne8hJDpYC+gs90PWVDf45i6PEH3z3GkC8ZKAecmG6zdUVHPHhSkMUZR2ci4sxQKfjsHmtx6eoyz1teZDjvUfIkW4bzvOGSZVRCjx8da/D80SK50OOj3z2KNpaRnpAvHJrjP60sUww91gzdx0UrrmOi+gb2HP9tsNsRQhP6D7Fm+MP0lb6KEI1HnV8KMUsjeh5js68i5zc4NnMJqwa+RuDdzUjvBAfHX4WxHttXfYfhnmu499AXaMU/SW/xO2cUVktqVETAHK1kB1JYas3X01faTV/pu5TDgOOz2y/oe1YIgQry1Mf3o9OIXGUZSXP2YfPzjgO1EJJczwiF/pXMHLqT9uwJ4vok+Z5R4vpk53jSo2f5VkrD62nNHMfojKBQOavcUU4APbeotrKZPZPtD5xspH943VXbmk93eS4IN/0b37PT/OVbLrrurpPNFx2djW7RxmUNeq4zuXoDM69/EwiJf/hBoiDEDHe2HKj+3Ds4+fbfYvw1v8zJN76V8St/g/Yll+MfX/BFqF36IpoveuVSUbVvF0IvjZiqVGe49Jv/ytbvf5Mtt32TF37lc2zadccZPWYjG1EQAQOiyLZgBxXZywrRxxXegujQVnPCzBLZFuu9Nby/8CY8PFb4a5nQE9yf7CKxMS3bJhAe98U/nhcqx/VxdgQX82C2n1DkWS162KlWPmxY6jCqVpIXOe5Ld1E1dX6Q7ebz0deo6erDBrtOCPyO4TwvXFXm8FQb6UmqqeEXXjDCizb0cuvRBl98aI7r7pvm8HSbVYMFRguKBKhHGf/j8mX81IYefnS0we6ZmHRRTqAXbujj3ok2Ugn2jzVZWfHJhR7/dPckBybbBJ6k1s6470gNYyxrih71dspMI+GN2wd42aY+/mn3NNpC0s0/JJDk/O8yU9/A5uX/hlJtPJVwYubKxzVnC7w2nrSsHv4oL932clK9riOOc19iqNzJYxOnIQjL8oFvM9deRiP6WR7JqcQiaSdbSbJNCGGBjFrrp7n/2OuYqV8CKJYPXE/Ob13w91dpcBVhZVlnd/jqiTO+x2QJKiwRlgaYOXRnd/nLwxpNrRv1JaRixaWvY2TrTzKwZifDm6/AWsOJ+75FlrRdR+Y4ZS22R2ej790z1nzxX71l8yevu2qbuRDKdUFlaP7xv/ztzOgr33NjnBlTDNWLfCU913QuXOypWdg5sABlfsBDl/0EzZe8iv5Wk8bWSymdOMzcf3odzRWrWfGJv6S07z7KD95H8YG7mXn5zyKCHPgBjUteRGHsGPm7bl06Y7z0xex70cvnN1btqU6z5davc8/L38jMirWMrd/KsYt24icxW370XcbWblq09QYoPG6NbqZOyt7sQYZFH0f1MQ6ZCSJODd5QFj5Nm7LXnKBIwHKRZ0QtZ0+2h5fmX86R7CgHs4Pcqh9ki1rJ5nAHc2aOATXA/fE9fDm9nfViAC1gh3cR9+j9hMKnT+SwGFIMCst92T4eMCc4aqeJyYjJeIl/Gb2LNmMF6C8H7D46hxSWw9WEsi8RxrK6N8dsK+V5qytc0h/y0jVltqyoEHqS/RMtyqFHGHrcebDKpw/MMastawseV6zvnZ/d53yFiVPSzHKymTJcCljZn+f5q8rsGWty/3SbdX0hL9k8SK2dErUSUJJ83uOB4w0+fv8MVW3JCcHrLuojH3rEWZ6NI19ltP9T5IMfUs7fjK+OEmfPJ9ObyQV3n91ss/krlHL3EaXrCP0JMtOLr44AiocmrqIe9dKMB9iw7PuE/oMMVm6lnazD2gKBd+R0ywkWX00Rp5cSpdvJTIHByidZt+wmekv/gZKG0NvD0em30Ep6L+ybVwjSqElUG8Naw8D6FxBVTwL/P3tvHh5XceX9f0/VXbtbvWmXbEm2vMkLZgtbVhIgIZB9YbcDxkD2yUxm5s28meWdmedNZibvb5LMkAEbG4wDZJsMIZCEhIQsrGE3lmW8yrZs7a2ll9vd9946vz9aljEYwmKDZNXneWRLrdbte+tWnfreU6fOYURr2iCEROgXEUk3Y7zvOVQ1LAAJA753uMCO1bYj3ba88tCy4zE48Vo48ZpKCY3tjyBWNxd0jAKiCxMeIB0EPbXJl8Pi9kHva7tHyqvXXbl4YCqd25RL1LDx6iWlr31y/j88cyD/vv7x8jbtC5q5KCGwc9FybLrk0zDyWZRb5sHpP4DogX0IqyuxM6Ulp2LHX/4b/KoE3L07kT39Xcg1tcDufPywY/kLlqPzgovBz4trmPPUQ3jy3I8gNdiHD656Ly78u+uQGh5A3+y5GJjbgeUP3XeY28UgAx3GAmwND6BbjWB/2IsI2XAmniMkJGLkoFHU4B3WSVjtfBhvsU5EiuLwuIDF5mLcW7gbG4v34JFwOxxInOycCQBoMmbhzvyPcW/wBABghEdRJ1KIyzQAhmKFVtmIv4hdi1ZKYrvqg0v2YWVVaymChHxxjJMUhAtPboCUEifUR9A/WsTcpI2iH2JhUxUe3T6CWzYPY8v+HPYNFQAQlGIE5QClcojuXGUZrtYUuGBxNV6YvuKElgTKgULcMSBFJeN0zvMxv8bBBxdXozHpoFwOkCsGiLom8gUfYSnEYN6HAtBuS3z5LfWonqhQny2m8eyefwXz4UHiNfHvYt/Q2480m2Os8F4MjV+Ckdw1AFyUg9OQiv0cIduoch+DFPvgWg9UJuqxz2NgvBKomysl0dXzV7CMLtjmJlRXrYNrPwOv/D4wH2rLIJyF4exFGBr/DPpGL0CobDjmEAAxkRNIwBB7J9479VfxWSkUR/tgunEIYVY8OxN5rfJD3SgXRmHHquFlepCecypUGMAbeXEB7smaYMwoZHow3l/xwiYa5yMo5jG44zFtyGbqAzID/ePl7U/vz733a5+c//e3rFpcmmrnOGUzVV1/xaLfPdNXOGPnoLeh5KtwspaA/ppxX7nqeijDApjhN8xGZumpUIkUwuoG2J2PY+66b2DXW96J3AmnwZuzCNmOQ3E+7Maw98v/hnu/cRu62xcfdlxzdASBYWKwcTZ6LroWkT/8DCf97AeAYvS0zUf94w8gNTxw2N+c5rwdy0QDGMBOtR9Z9nCKeVLFzYsQY1zAtrAX95YfQ3fQjaRIYYxzMGEhSQk8Eu4EAFiQ+EzkMjQbLQADFixc6H4ApYmsznFKIOAQc8x2tFOlztRjwQ7s9XdioWyDCQNzxaHaWHMoiS/FPoOUqD5iG1pS4PT2FBoTFjLFEKYhUJx4gj6lNQ5mIJP3saAhBgIQhAzTqJR2HQkqIuujcxOY31j1omNXV9l464JqtCYdQDEsQ8CUEr/rzuKBnaNIRy1URSzkCz6qoyaG8j4gCIP5yrVeflIdOmbFDzvmlp634g+dP0Qmex2AyiQraBCOVUCu+FEMZz8NwJm8ftfqQ8wZwkhuPrzyyfCDBowXToZSSRCNThjkGLbtvxG/7fwiwtCY/KznDpyGXPGjh4wiZTE8fiKA6KTAMuQBpGO/xKbuK9CbOQk5bx5Kfk1F9ooMCBXb3j/6Vxgv1Ez5MeWN9qE4dgCmm0C8qQNB6dBylZNogLQiYBUiMWspyrkR5Ad3VdpGmqhqWIj6jrNR1bgI2b7nMLTzSQx3b0I5NwxvpBfgSlyQ6VYh27sVfiGr7dgM+yr5Ktwx6G14tr9wxndWdPx+quqMKZ2qc8OqxSO7R0pXberNrxgpBINaU89MjKKHQiQGu3sb8sk0upeegv53fxBypOJN3XPppzGaqoHXMAtKiMOyP+9f/b/wwAcvw3gy/aLjZucsQCIzBCZCOVYpblnzvRsQ8fJQQmJs4XJ0PHr/YX8TFTFcGr0cKbIwznnkuISkqMI8SuN95mn4pH0urnAuxGfdi3G6fQYcimCn6kdSpBEgRJGLOFt24BuJv8NJzmmHHXuRvQTvN0+d+JwoCuwhJdI4x34nPmKehcudC3CG+y44ZOFkORsRqnga2imNv4j/BVrN9pdtR8eU8AJGyIBiwJCVwqiJqImPL0zhxNY4DEPAkISCr5BwDZQDBW8iM/TLBZumoiZmJSyEqJTEiDgS719cjQuW1U3mbDwwXkYsYmJvIYBtCGwthgAdXk3++ewfmYd7n/kqfvHkI3h2z20olM5GU/oe7B86D/liG4azV1U8hVyPst+MscJJKPm1GBj9KCL2PRgcOxFSDKEcVNq05L8NT+y6AP4Ltqr7oY3dfZ9EENZOmsTugXOxo/fPJv7uFHTuvR6de7+F0UINGlPPIFARlIMkMBGkXvLfip29/4kHuq59Xgbqqct4305Ea9vhe2NINi+C6cYQqW6B4cSRaF4MadiwYtWQpoPcwA4AhMSsE9B25sVoXPIuJJoWoG7BmZCmg8zuxzDS/STc1CyU85nJ+DlpOmAVojDar43YDGKkEAxt6s2v7B4pXXXzVYszU3pumeqNecvVixWA21et73pkXrW9pilhvc+aJ5AAACAASURBVNvQ2+WnkqMTxzoVa+2+HehrakVkZxf2fWQlAjCCZBpdf/9fEIGPYjyJkm0jO3cR4ju2YKjhUOBwMV3zkue3ffHJOPMnGxEbG0HqB2vBAGR2BIZfAhBFqaYOc27+/yDP+0hld9gELeYcrHQ/gT+U/4gtYTcWmx2oEdX4VuG7E1vhAQGJr0RXIyWTKMKHIICYAAjMMxegWtY8r/0O+hkI57rvxyNBJ2pkPQoqjxJ78FQeT4VbsQjzYJONITWKU81TsS2oFJ+cIxom4n5e/j7kSwGgFNK2wIjnY15DtBIXNOwhW/ARJYYAQxChIWqARaXA6WxLYMxX2Drk4e0v8Rn5UojapIN9I0UAjKzn4zfbMgARLjulHiEr7B0t4fT5Ei0RA+P5MhQD8x2JiCNf8tyZCZl8PTL5esTd3RCiiFIQQUvd7Xhq1/9Cc7oRjBAxZxyutRuO1YTtvWdhdm01XHsUhiwjk12OmPND+GF0okL8iz9rONsCKYZRDtpQ9k+G50cxt2FD5V6KEcypvwP3Pr0GgIIU4xCigGT0ULHbx3b8I/YOLXrRPZ2KBGUPheE9cJKNiNXOhTQtFMcHYceq0bTsHJTzozDcOBKNC9C/9Q8AgOr201DdesKECp4QOIaJeGMHMt2Pw0nUo27BmTiw6ZeTvz+4pOZ748eoTRg6DfQU6leK+cBY+f4dw6XV667q2DUdznnaFGtZd1XHri2D3vu7+gt/kyuFBe1lnBlfUAqJHVsQ8fIQ/fswWN+ETHU9crWNmHvHDZj9sx9gvGE2fMtGpmEWkpsfRyF6qPgovczqaWCaePSDlyEEsOUfrsfgVX8J7/T3IB+JVcSQV4C1vROJ4YEX/W2jbMbp5kloQgS+KqFRNuHPI1fgzyKfwmXOBVjhXIhZZhsscvAe81RsK21BVCbwNjkfmXDoJc8pZdRghfsJZNUoOqxlyKsctobbUOQiznLeBoLAXtWHeVYHRlXl4apKxFEJ0X3pdlQA9mQ89IyUEI2Y2DNaRiJmgQF0NMUwXgzggQCqHGdhYwy9wx7iERMn1lU8TbvHy8gWgyMef7xQxki+jKaUU2lbBk6fXYXLT2tAuspCoRTCZ0beC7C8pQqP7qlkUj6hxoFliFfUF/YOnYGsNxup2G6M5t4OxyyjWK5DW90/wpRjGMufiMGxBRgYn43d/V9FS+0NGBg7CVmvEUrNgSE9AEfuDyBG1rsCJX8OunpWwhABiuUFFU/U8Erc8+Q6FMpVWDzrD8iXqmHKcdjmHyueRO8i9GTmTbmxo1gd8fXMnmcRlj34hXGkWpeBpInquSfDTTWCwcgN98CKpUHCmMgVlEaqZSmYXtzHEs0LIKSJ5OxllZpj0RSYKr8L/UombhX62pYd51+5Uljo6i/8761DxfOni/iZVgIIADZevaT89YsWfP2pA/n39I2XO3WA9PGH4+Vxxn13YtGmP8Iql7Cg80l49bMwq/NJ+EtOxWB9M0CE3qZWFFrmYv/7P4nRWEXw7GudBzHYh8hYBsHcjkoHL718ocqyZWNo0QnYufQUlJLVGD3pTARmZYkk2rMLVCogUXhxuoqoTECC8DbrLAypITSbLQg5xLrC7bit+DNsKN6FJ72HAQCn2Gfh7vL9MCDwDudd+HXwGIbCI2+GyKsc0rIG2/1tmGW2wSEXb7Xfjg87F6JKJNAfHMCpxhJERBR7eAgAMNtofcnrK/ohdg8W8PD2DKKWxG8P5OGaEnUxc3L3XiJi4rIzmvGOBenJAOfZtRFs6isg7hiY11QFVxD2lBWe6T5y5fNkzMaB0RIaUxWxZEz4aHf25iGFQG/Gw8JqB9lSAFMK/D5TiZlZ0lz1ivtGT2YhonYvcsVa9GROxLzG72Fzz7vwQNcvMJpfiHT815jX+CM0Jvfhyd0XYLxwDmZV349sMYld/V+GYz6E2vj+Ix67Jv4cdvadh3zxLdg1sBTL225D1Pkf9I18GcVyM8qBi4SbQczZi7FCE6qrHpz0223Z96kpl/ywmB1G90Pfx94/3omx3h0Y2bcFQzufQF/XH6CCMoRpo2HJuypBzEQwnRii1bMgpIlSdgiG5UBxJWWEk2oGCfkS3qQi3PTsSvZnIjjJhooYZ4WwVEkH8MKiq5rjyP/PQN94ectTB/LnfP2iBV/bsGpxeTqd/7TsmTes7Hjkmb7iW3cMeWtKgQp1Nzx+aHvmUcz6/lqc/PmP4oLPfwwn3Pg1HGhfhKY7N+LA+Z9E0a0EppZiVdj+gcswVFOPwKnUkSpGYuj9xCrMeeg+5BdVtua6wy8ff0BKgQo55GIJCDAGFy6rDIwwQGJHV2UyL7w46V6VqMK+cD9mm23YH+wBAHTYJ6BdNkw654OJ5bAmcxbOt96Bu/I/RKvZjg9a78b3cxuRCYcPO2aBC9jr78GTpUdxTuR8GGRgq78F/1P8OWpkPRIyhU2lJ/A292wMBf0Y4MoE0/QyAqhrfxa3PNaHPcMeekdL6EjZyBR8nNWenNw9TESQkg7b3WUZAu/tqMa23hzqEjYum1+Jq7p7x9hh1d8BwA8VMgUfcdeAMRHwM1rwkQ8ZC5urQAQ825NFS00EyaiF302Uv2h3JFrroq+4bygW2J85E4VSLRwzj0KpFW01W1H0E3CtYezuW4G+0VMQKgU/tPC7LX+GctCAZS23o2d4KfLFc3Fq+80vytOTjvZCijHUxp/Dg8+tQn1iD1KxW1HyT4eUWTzVfS4EhThpzvexpedCzGt4AKaxaWLp7NPYNTC1Eh+qMED/lt8iKGZRyg5gYMtvMLTtAYx0P4F8/w4UMvvQdOL7YUWTADPGercj278L6mBBU2Z4I70oZA4cPOCRPyfwMbJvM+oWnDkZIOYmK/0/LBehgorIFbrc43FJKVDBjiFv7aZ+76wbVnY8PB2vQU7Xxt901/WlpvM+fU/OCzpdk97mmrJKd8k3nqOZCZpBOOnHN2P7Jddh4JwPo9jchl3v/Sg67r8H1sB+PHDtV1C2Kzt/QinR8fBv4JZK6GtpR2BVAmlHG2djyS3fhDU8ADEyCFMxdp594WExPM+nYX83vHQNxpPVSA71o3fOAhRicUTz41j6z58HAdhz0bUYTVYfLpxAk/W4flP+A063T0dERCFZoaTGkOE8toY78Q7rDDjCRYs5B0PhAH5d/CVOt9+K2UYLHis+jCyPw+cQjBDjagybyk9gqbkcbdY8DAR98FQO73beg2ZzNgaDfgyFA1jmnIz7C79Al9qHxaIO50Xef4QSGJVaXV19eZw7P4kqWyJbDBF3DNREDCxpSYAAlPwQUoojplJJxSyEocLAWAmntqcRKfl4cLgEo+Bjbn0Ehqw8P20fyCMdtVCfsCfzA9XGbbTXRuBaEsPZMh7cPYYljVEMZ8u4Y1dl+euKjjRaayOvqo+Me9WY1/B7jBUaMTi+CItn34Kt+8/HzoEzcGr79WiqXo+oHUP/6BLky3HsGTwTcdfD0pZ/Agiocv8bbbXbEXcMpKK9aE53IersQaE0C5v2nY9yYGN+44OoTdyJA5kr8eBzn0GgLCxvvQ+5YiMaktsxq+bvK96PcAEe3PpPL6ot9maTG9yDsZ7NR1D7hFjdPDQufTesSGLyNaeqGnYsdchTQ4Sx/VsQFLMQ0kQ5l0G0phXSOrTrzi/mMLD1QVS3LYcVPXT9hh2Z/P3ovkqMVLxpIexY+pjYHp0J+s0hk/f7tg56q/Zmw3+97erFxel6HXI634TNd12PR3/8n10N7179IwksidlyriA9HKarAAIIy351J2bd8z0EyWoMz1mIOU88iNSDv8LDX/02BhsOFVlUUmLv4pPQM3/JpPgBgJITQWnhMjT/+i6I7AiMvn2Q85eht3X+i7YxuYUc6ru3Y3dHZRv7UFMLim4ESko07duFlp9sBLtV2HzxNShGX6yvUzKN33v3IyaqYDCjwZiFWWYr2o12NMBFh2xFUtYgLhMQJDDXmo8aUYtfeb9AV7AVsya202fVGHb727En6MY73XMw22wDgzEWjiJl1KDWqINihfu9X+JdkfMwGPTjP73vg8H4pH0BWq25L+me3rw/i1yh4ovKlUI0J2ycMjcFEDCa95HzfASMSkK5I1BdZcM2BboHPSxrSWBeROLhnhwe2D2OfcMeVKAQsQ3Ux2281N6E+zYP4C2tcURsAzc+3o+cApZEDHzopHqY8tU5oRkCRb8W9YkdyBVTGBo/BR3Nv0T30MnoGT4Lg2PvRTLaA1MGGM7NRqBM9GQW48DI+2CJJIhSsIxBRJ3tkALozZyEnf1vxXBuNhRLnNx2N+Y23I7n9n8V23vPQb6UwJLmBxBzBqDYwYLmL4AoAGDh6d03YO9wx9SbnHY/hVhdO8xoGoYdgR2rQayuHTXzz0CyedGh3D0vgR1NQjGjMLgbRITQL2L8wFYURvtRyo3AG+nFeO821M47DXYsdWTvQC6DbF8lSD/VcgJMJ6YF0HFAoJj3jZR+tWWw+MEbVnY8vPmu66f19Rw3XWfF2i6joUp+fk7a+ccqW8Z0Vz32MAMZz0d1xDxqx3zbT29D6zf+CiwlwoZWDF14CZ455yMYrqkHCBBhiNAwIVQIGYawigXkq16cdbdxfzdO/tE6JH+8Hmw52P3lf8HOE89AKVIFy8sj1dcDhCF2nPAWqIlMtUapiGDCw3Tq736GhX+3GuV5S/HjNfcgfIlstvv8bnwnvxYOJL4c/ytExZ/uegfFTU6NoQwfDhzEZBxxUXmSDjjAiMqgVtZVxB4YD3m/xXxzEWKiCuuz/4VHVTdaKYG/if/Ny37mQ1uH8J2uEVw+N46O5kqtLUMSLEkY8QJwqFATd+CYf1qI9I2VkC8FyPsKBV+hJmpibrULIV5sRkLFKIUK/RkPm/fn8LaFaax9cD825QMYBHz1jEbMa3jtw3TZ7N/CK6ewo3852uufQdw9gKe734dUbAAl30a+9NoyMRuysmxjyjLm1j8KU/qQIoAUPuY1fRE0say548B/4I87PwLmqWdCe576OWra3wInXvPyk1mpABX6h7xBL6A4PojRni3wRvYjLOcBUCVvUPNiJJoWQjxvTDCrw4qnjvftRP+WX4NIoPXMi4+JABou+Ei7phZAbxDZUpjrzhT/oTcXfuvWqzuC4+GajptSE7eu7ggA/Ps1t3T9fn61c1NdlXmi3i1/jAXQC/4/Guw4+a1ocaJQ6Vo89jffRGKoF0axgNjoEIxCHhYr9DfPQcOenWh78gE4u5/D05/6ErKRGEwG8tGKoT3Q3Ia+z/0Dai66Bo0H9iLS14P5D/8G5WgVxpta0DN3IXKxQ4Y/MTIE6ZeRqWsCAMQnYofGz3wPQiFf8hpnmW34mHMhvu3dhp/mf4SPxi6DSRVBWFB5lLkISRaqROx5zxuEhEwh8YKSFXmVhysiGFUj8LmMPBfgkout5c2Yb3YgLpP4Ye5WPKq6AQAXuR9HRMRetv2XtSVx/mgJGS/A/pEiyqFCzDaQrrIQtw1IS8I2K7uwDmQ8GFLAEIBhSBRLAeqSh5Y96hM2AHvyKo50/0PFUMzYmykiZgls6c3jLe1JrH/oADblKzbzinkJzK2Pva5+s7nn7Thj/vdAxNjWtxxz6wjL236Jp/ecC36VeXgMWULSHULMKWIkn0IyOoCOWbcgV2xCJnsimtNPoz71L5P3rrv//+GPOz8MxVPTvphuHLmhPbBfRgAFpQJ6N/0SYbmAhmXnHVEs2fFa1C9+J1QYQAVlgAjSsCYDog/eP2+0D5nup9Cw5GxIs9Jf1ETcEEkLwrCO2WZ1vQ/m2KOY0Z/1n945XFx946c6Hj+erk0ebzfriTuv7214zzW3KYVY1JKnGpL0FoRjSDFQL7l88lrIVyVQB0L8d3cj5ZeRa56Duj3bYeezyNY1QkkDyjDQuKMTc373cyR/dzdan3kMxQXL4EVjqB7sQ8l2EBomWAjkYwn0N7agZ/5S7F20HPvbOzBU14Sy5QBgOIU86ndtRayQQ6pnN0pVSZRsFwsf+Q0izzyM/R9agZ72l1/maDRmoRFV+EH5PgThMOaaC0AgjPAIqmUtTDLgcRFF9pBVWQypYQyqIYyoUQgQylzGWDiCAAGyahQKCoIMhOwDIFTLWhARbs/djN+ElSKUHzHPwtsj50D8iX0MliFQHTGxdFYVOvfn0JP1YU14bKKugeqYBQIwmi/j+gcP4Lfd40gIwDAEpBQYz5XhlcNKoPREmYsXegH9UGFwvIRcMUDWCyrix5boHyuhPm7jlsf7saVQET8faY7i3BPqX1RO49VPfAK9I4uxrOUnaE5vQ/fQSYi7I1jU9HsMjM0Hg1BT1YsgcFCX2I9UdAcakrvRnH4ajaku1Ce2oTbejVRsP1wzRK5chZgzgqbUJkTtUewZPBtAHItnX49E9I6DrYkdvf+OR7Z/bEonO2QAw9sfgukmYUeTL1r69cYG0LvpXvj5DFRYRq5/Jww3fsT3ApVdXMIwIaR5mJeHmZEb2IW+zl/DL4zAG+1HJN0MaVjw86PID+6GMCykWk447O+OFnoJ7A2w774KdmdK39k2XLx8/VWLu4+365PH403bdNd3yrPe85l7syX/SdcQ73AsGddjZHoIIBBhdNYctD39KNw/3g9/4XKQaSIy1Ieq8TH0LFiKuc88ioiXR+PGb4JUiOx7Poz6px5Cfc8uDM1dhMhYBs07OlE9OgxIA2AFMEOEAaxyEfHsGJp3P4eGnVvh5MZRnRnE8m/+LUQihcZnHsHIvCVo6tmN2B9/i72XfBqDtY0vf8ogNJstWChm4WflX2NT+XE0iDo0Gy3IcRbDwSBK8DESDiLgIgKECBDABKHMBfgow0eAgsohxwUISNTJBlSJOAQEtpc7cWN+DTapyhbuM2U7Ph69HDbZr6hJI7aBnoyHk9sSiAjAsSXSUQuzUu6k+Nn4SC82FwLkFGNTpohmkzCSD1BUXBE42TJGCj7GCz7GiwFGiwFGxksYKvgYHC+jFCjkSiGSERMNSQclX2FHXw43bMlgeKKUxgcaI/jAKY2wjKMzGSoW6Mksx5y6x3FK+5WIOWOoif8P5tQ/BlazMJKvRX1yF1i5kMIHYKNYjqPopxGEMQg4sIw8qtxeRKwcBsbnoG9sAWJODktaNqCl9h9hyL0Tnq352LT7P/HUnvNetYfpDfcAOTHkBrsxfmALiuNDUCpEWPJQymYwsncTMjsehvKLzxMyIfKDu1D2srBi6UkvzstRyo1gcNtDGOl+ojK+AISlHLIHnkMpP4LiWB+C4jiEYSHZsgzHIjRTC6BjK6IzeX//1kFvxYFx9a3vrp56dbyOynRzvN/IFes6m+anne80J+wPmVKPlKM6SBgY8Xykj2IM0EEWPfsYTvmrFaDCOAYu/SxSf7gXmfd8CGONLRivb8bJ//Q5iOE+qEQ17lv7cxSiMbxr3TcQv3MDsu/9BPpOPxtetArm+MjEcKZJIUQgsBtBVWYQ9b//BezHfzv5udnTzoZKpOFX16Hme/+FTd/8ITaddNYrPu/hcBA/L9yJe4OncYpowZnWmWgx58IVMQgGxnkMRS5OlAtgAAKCBNKiGq6IToqanMpir78L95d+PVk/DADeKTtwUWzFRPLDV06hFOCXnUNYWOuiPlWJ2ymXQ+wayOOn20ext6wmDcLqRSm8bVENeoYLuHPTIFriFmZXO4g4JkxJIJ7Ip0wEIQWSjoGIY4CZMTBaxLM94/jlvhyGJoSPALBqYRJnLayZ3CZ/VJ/iRIATW+/Dwll/CUGHMu975XejN/NB9I4sw1C2Fn5owpQMQyowCwQhIeQAMbuEmvheNKWeQE38HpjG4dXmM9lr8PjOqycLqE4HvLEBHHjqp+BXmSWEhESkuhWR6hbYsRSkaYOEBCuF0C+hlB1GfnA3vJGeyUzPL4cwbLSddTGEYR/1a8wUfKR0DNBRxw8Z+8dKP9k1UvrszVct3n88X+uM6DqXrNlszKqyVrel7X+NO4YOkJ4GAghgLH/kfiz9P58FFSrbpoc//Cl4zW1ouv2/IEYqMTrb//Y/8eg5HwEAWEUPp//qx2i58eugbGUiVKl6cF0j2HYBFYLyWYi+fSDv8Nw+HK/G7s98FT0LT0DH/XejduO3AFYYuvRzuPeavz6sivyfIkSI3eXt+FXx53gk3AkG0EQRNIg6tIompCkJQSYEyckhqDiAQoBxlUW36sEutR9DfOgpPU02PmlfiNOct0/GGL1asp6POx7txaOjZZgEeMxQfLgxWDkvgbOX1k4udRXKIR56bhg/2jUOk4DZroHWuImGiAlpEABCEIToHvexY7SEvWV1WFzGQlfikyfUYn5j1TGfqBoSe3BK+y1IxjZMFic95C1qRKhmoexXIVRREPkwZR6mkYGgXSDyXjh1I1+8EFv2XY0d/cunXKLDV0J+aB/6O++DCv2X9LbSRNLCl3bIisllsZcUU0QwrCiEYcH3xg5/HxFaTvtEJeeQFkBTnvFikN0zUvrK/mz5xttWLw2O9+udUV1n9c1dy+ZV2+vq49ZbdID0VBdAlc65oPMJnPTNv4W57ZkXzE8C3X/xL3jo/IsQykNLcMSM5n27cMI9dyD9gxtB6uWfUlkIZC76NDa9/yL0tFSKiYowwLInHkTHTf8Kc1cXHrjxbuxuX/yqzz9EiP3+HjxbfhKP+U9jF2de5ZAjnCpm4xTrLVhsLUdKVr/uNi35Cvd3DuL73eMIn6dUGk2BixenceKc1BEnlIGxIh7alsG9BwrIqz8dero8ZuJdc+NY0pKAY75xK+1ECm01z2F+432orvohDLnzVf19EM7FcPbj2NV/NnYPdiBU5rQeo+X8KDK7noA3sg8qKIOkAcOJI1LTilhNG0gIZHY/icJw92QR01fjLYrWzUOiuaMSRE0CvjeOsZ4uZHu7KoHTABqWn49o9WwtgKYwihn94+UndgyXrlp7ZcemmXLdM67rXLy2MzIvaf3D7KT9JdeShu76U1cAHSQ5MoSlj96Pmod/A2OwF7lT3oYdbzsPO+cvBb9Emn1SCvX9PWh57lnU7OhE5MmHIId6ASFRbpsPr+NkDLUvwt75SzFY23jE48THMmjfuglFx0XX8tNfn/DgIobCQfQGe9Eb9GC/6sN+HsYYe2AASXLRQrVoEg1IyhrUyXpUyzrEZQrGUQ7VYwYGx4vYM5DHWDFEXZWFtvoo4u6fvo+j+TL2DBTQPVTA9rEy+ssKATPaHAPtSQsRx8C8ugga0xG82UvOUTuLhkQ3auM7kYzug21ug2VshxAjIAoRqiT8oB0lfxFG820YGJuHvtE25MvHX07V0C+BVQgiAWFahwclM6OUH0Ehsx+l7BD8/AhC3wOHlSB8khLCsGHYMRhOHKZbBdOtgl1VA9M9cluF5SJKuWEIw4JTVYNjoVK0ADo6eOXQ3zda+ubu0fL/uW31kvxMuvYZ2XUuWbOZql3jnLlp56bqmNmix8/UFkCTTp8wBDFDSQl+NVaPGTIMIcCVIpFEk7l/3rQnLigwH1ouIlSWG8Q0qk4Tqkp7ggFBOGI+oKmEoBCC1OSEyVwJpK7s6NJW4NBwUS/2BhFNBDJPnXbSAuh13mcAwzl/7+5McXXWD391y1VLZlxWgRnddVau21I7N2Vf35ywPmZJXbHvtQygkcIbJ4A0Go3mMAEUMbV0fQ2UQ6X2j5Z+vGfM/+z6qzoGZmo7zOhJf8OqxYOdg4VLuvq9a8a8YEwPi9cmgjQajUbbnunBmBeMdfV71+3KFC+eyeIH0H7fSa7Z0LWoLWGvb0xYZ+h6Yq/cAGkPkEajeTPQHqBXh2Lm3rHyo3vGSlfduLKjS7fIDPcAPZ81Kzu2bh303r1t0Pt6oRyWdItoNBqN5nigUA5L2wa9r2/LFM/W4ucQWjwfgc/cuvXsuWl7bU3MatcN9NJoD5BGo3mz0B6gV2ajh3L+zt0jxWuvv2LRr3WLHI72AB2B76xYdP/mAe/0XUPe7X6olG4RjUaj0Uwn/FCpXUPeHZ0D+dO1+NEC6FVxy1WLh3Nl9Qs/5FC3hkaj0WimlwBilSurn9981ZJh3RpHRnsPj8ClN2yihrj9mfm1kf/nmsLWLXJk9BKYRqN5s9BLYH8az1flHUPeX/SOFa+//boT9Ma5F6A9QC/gsrWdoiFu//WC2sg3tfjRaDQazXTFNYU1v8b9ZkPc/uvL1nbq+V4LoJdmxU2dsrnK/NuFdZH/65hCl8n4U+jnCY1Go23QlMYxhVxYF/m/zVXm31689lk95z8PqZugwhU3dcpZVdY/z6tx/0ZnhX7lFH0F19TdSKPRvLF4E7ZHL4H9aQxBlHSNd0DBnn3edb/d/NPvaOmoBVCFT63fIlvi9jfmVLtfMqTQbfIqHr6KvnpDq31rNBoNtO151QhBlHCNtwog2X7+dfc9/ZPrZ/wO5xnv6bjsxs327Lh1Q1va+aIhSI+m1yCCNBqNRtueqY8hSLSlnS/Mjls3XLZm84yPcZ3RAujStZ2RudXOhtaUs0oKXf5Co9FoNMc3UhC1pJxV7Wln46VrOyNaAM1ALr+ps2peyv5hW9r5pBY/Go1Go5lBIgitaecT81L2j664qbNKC6CZJH7Wbk7NTzk/bk2779eFTzUajUYz4yZ/IrSm3fPnpZ0fX7pmc3ImtsGMm/xXru+snp92/7sxbr9TS5/XBwMYnUhGptFoNG8kIwUfSZ0I8fXbcQZ6x0u/3TbkffzWq2dW1ugZ5QFadUtX/aJq967GhBY/Go1Go9EQAY0J+10dte7dV9+ypV4LoONR/Ny8pWV+2vlFfdw+S2sfjUaj0WgmRBCA+rh9xry0e+/VN29p0QLoOOKq9VsWLKh2762rsk7UXf0oovehajQabYOOG+qqrOXza9z7rlq/ZcFMEX7HNVeu37JsUY3705qY1ao9P0ff9ugYII1G82agY4COnV0fypX3bR3yLrj5qsXPagE0Ow7+igAAGDpJREFUTVl9c9fJC2rcn6ajZpPu1loAaTQaLYA0r4xM3j+wbcj7wNorO548Xq/xuF0C+/SGrjM66iL3aPGj0Wg0Gs2rIx01mzrqIvdct2Hr6VoATSM+u3HrOxbWRu5KuEaD7sYajUaj0bx6Eq7RsKjOvfuzG7e+QwugacDnNz53/oKayE+qHKNWd1+NRqPRaF47VbZRs6Amctfnv/vc+cfbtR1Xy6ef37j1E/NqIutjtozpzQFvDKMT6/AajUajbc/xCQHIlcLCzmHvym9fvvAHx8t1HTceoM9t3Hrl/NrIxqgWP28YDL0LVaPRaPszE9o6asvIvBp34+c2br3yeBJ205qV656llGNd217jfts1pX4ceIMHhd4FptFo3gz0LrA3B88P/Z1D3hf6s8GNd1y3ZFpr0GntAVqxbjPVRuwvzq+NaPGj0Wg0Gs0xxjWlOb828u3mhPmFFes2T2v9OW0F0BU3dVJD1Ppf7dXuv9qG0OLnzUD7nzUajbZBMw7bEGZ7tfuNhqj9lSvWdk5bESSn40lftqZTNsetf2xLR/7OlMLQ3fHNsz1FX8ExpW4MjUbzhuJp2/OmIgSJuGOczQyr7bzrfrfpp9dPOzk67TxAl63ZYs5KWN9sS7lfMSXp3q/RaDQazZuAKUm0ppyvzEqY37pszZZptxIzrQTQ5Tc+a89OmDe1pd3PGJKE7n4ajUaj0bx5GJKoNe1+dnbCvOnyG5+1tQA6Bqy4aXOkNeXe3JZ2VxhCix+NRqPRaKaECBKEtrS7oiXl3nzp2k53upz3tAheWrluS7Q1YW9oTtofE6Q3PU4V9Db4KXY/GGDwxP8v+JnBADNP3Dg+9DcTA4pp4jVVeS8UA2ri53Di5wBgBcBnrvwOhw5VeT8zAwcPxQePAap8lKqcFXjC9PAhO8QT/5OgyrnQxAsCOPjAwwQQgSDpkO0iAIIIAoBZ+XsYAOTEa6JyDAiiifceMn1MNPnBDMKEdSEiAhEBNPEiAXj+z5o3H70NfuqhmLF/tPTf3WOllbeuWpzXAuh18qn1XVVtSeuOxrj9/gkDpplCAmisECAZMWbktb9wBwqDKyqAGUoBipkVo8zM4YQgIWZmBgJmlBgoMbPHjCwDBWYuAigBKCtGoACfmUsho6iYPaVQCpk9xVxSCmXFXGZGoBgBgABACOIQjDKDAoDLzCgFlc8oKoavGD4DoWIOwAgVEAIIA+ZQTAiCicm+ooiIuKJOiCckFSsmVmBW6qCGYhCJyreKKxKDJ5qEKi8LEhMKjCtyJlQAGRPvCghSgBVAlUFOqvLDweNURv7BY4OIWU28WBEqkogETQikCZ2CSntXLoArqmxChZEkkgRIAUgQpKj8bAiCKQgWEVkGIQKCRSCbwCYIJpgkKptHDEEwiGAIIksIWAJkS0GOEHAEkSsJDhHZAjAFwQBggcgmwCEgQoQ4ETkEOEQwCTCJiKhyH0BEUhBsQQQhJlQeHWyMw634TDSMo4UAiYihJ4Up+CDWO176+d6R0sXrVy0e1wLotYqfdZ3Vc9LuDxuqrLP1U5cWQK/1HJ/nCZl0gSgGKcUcMkMpBaWUUorBzEIxK6UUK6VIKSWYlWKlAGbBzKxYVV5iJTgMwayYmYm4MtVS5QsMiD5Re7ki+UsolBhcAqvAkHLSq8Cs2GequB+Ycds1S/XG3uOYy9ZsJqaKOjOJQSQOCjMEKgQgDALZELAFh+c1qsHvVqQfTUhHIiZiImIiQSQlCRIhCQFBQkz4rhQRgYQkIQSEEIqEIEkkiEiRIEghhBCi4iYTRIIqXrkjeb60ANK8FhHUly3/dnem+PFbVi0e1gLoVXLFTZ2N86udO+vj9mm6g89MAcQAlKo4FULFSjGDGRSyYhUqDpUipUJmxUKx4jBUSqmQVBhCKQWwEszMzEoxK4IKK54DpSZWPHhCekw8cFe+f3mvz6s6f4Ee2fC+W1cvv1f3Fs2rZcXaZ947K+z7BVVWEY+KUa/0cJooI0Fq4mcCCEyCSQiCkIpIME0KKqGEECSkhBBSSSmEIEEkSAkhhRRCCSlIkiAisBBEFY8cIMSxc9trATT154f+8fLj24e9D268eknvVDzHKfnofsXaza0Lqt176uLWEt25p2fHP6gWDoqYQDFCpVRYcZ6IyvchVBBAKUXMCmEYqnBSwIQEZiJWIVgRcSgABVHxsuDgSk3F4B8M4zgU1C8Onw/EK50r+Gi3g0bzOvsQHdV+d1ACvXCYTPwqBBC+KD+cBHAw6EsEh95+8H2CJ6KkFFXCrJikAgnFJCSIWAjJQkohpQylkIJIQEjBQhokhVRSCCkEKSlISCHIkDQZtHVwpOq5YHpBAOrj1qkE3HfF2s3v37h66R4tgP4Eq27umjcnZd9dG7MW6klkahMqxngp4FyxpDgoAyogVgqhClUYBkKFIUOFouJpUSxYSYKCqDzRHimHkxAvVivGq3zI1Wg0b8gEN2mdD8aSH1RCFffnoaFMzxNnRnCEcV8RWEIyBBSJkCGIQQQhlJCGkNKoCCdBgDCZDAuKpIg5kqTQ5mAqU1dlLSbCvVeu33LBzVct3qkF0EuKny2L5lU7P01HzHn6EXrqI4kwK+FQKVDCK0suFosoFQsISgUhVZlMhEILFo1G80oQEz4myc97OAohw1CyLywBOwLbirBjO3BtU9iGJCI9T0wHamPWQinoF1et7/rA+qs6tmoB9AKuuaVr2bxq966Ea7Tp7jKNngIJcExBjukQog6AJELF7JUDLpTKXPIKXCrmSQRFkhwQaWul0bxyeKZdLiEkg5XhsO1E2HYiiDg2uZZBUudAmdakI+a8RbV077Ubuj5w48qOTVoATXDdhq7T56bd/0m4RqPuJtMfKYhijkkxxwQSUTBqUfRD5ZV8LhY9FAt5Zt8TUpUhoLRR02hmKAqCQ2ExmS47kSg5jsuuZZJj6YWt45GEa7TMS7v3Xreh68M3rOx4dMYLoGs3dL27vdr9QdwxqnX3OD4hAK4phWtKIOYASMEPFXvlEMViUXnFAvxiARSUyICv7Z5G8zyOJydQAJPZsJXpROA6EXIcB64lyZRCZ/efIcRdo6G92v35dRu2fuKGlYt+PWMF0HUbtl7YXu3cXuUYVXphZGZhSEFVrkCVaxJQBcWMkq+4UCqHxaJHRS8P+EUYqiSm67KZ7tOao9GHaNqeOyEQtoLhsONGyXFdjtgW2aZ40WqWHisziyrHSLVXO3deu6HrkhtXdtw94wTQZzdu/ejctHtr1JZR3R00ggiuJcm1XIkqF0Aafqi4UApUsejB8zyEZQ8iKJJAqGOJNJopJnYUJCvDZmm57LpROI5DEdvQ3h3NS4mg2PyayPc/e+vWK65fsejHM0YAfeG7z106J+2sdS0Z0d1A81KYUlAiYlEiYgFIIFSMUhByoVhSRc9DueSRKntsclloQaTRvLGCxydLCdNhy4nAcV1EHFvYhiSpi1VrXiExW0bm1bjf/cJ3n7v625cvvP24F0Bfun3bVW1p5z9sQ2jxo3lVSEGIWAZFLIMQj4IZ8EOFQslnr1jkUrGAoFiAoUpCINQNptEcJUJIDoXNhhNh23HZdVwRsU0ypdB7szSvC9eSbnuNu+5Lt29z//3SBeuOSwF0xbotVOMan2tLO9+wDWHp2655vRABliHIMmwkozYxElCKUSiHyiuVUCp6KHt5UFAkwX6lHKdGo3lZGMQhmWDDYcuJsO26cG2HIpYUx7K0hWbmYhvCaUs7//Xnt2+LDnrBf2xctfgNMdZviAC6ZO0mUeMa/7st7fydZQhDT0OaY4UQhJhjiJhjVLbgcw1KgWKvVFYTiRr5YKJGeYy9RLqfa45GHzrW/aji3bFg2BFlOy4cx4VrW2QbR/bu6H6tORZYhjBb086/I1NMXrp20z/fvvoEdaw/85gLoEtv6pQNEfNrbWnnz00ppB49mjcSAuAYghyjkqiRK4kaUSwHqlAqoeQVUCoWIEKdqFEzEwTVRKJB6SjbicB2InAdC65lSilIHtPieBrNnxJBUoi2tPv3AGKXru38yu2rlxzTp9RjKoCuWN9pNkTMf5uddL9gSr1SrJkagsgQhJhjikqixhiYgWIQslfyVbFYQNErgH2PpCqTgNKNppm2HJZo0I2Q40QqiQZNqS2yZkpiShJtaffLkmBetrbzL29bvSSYdgLosjWdVnPU+taspHOtTmGumdKiiADXlOSakiqJGitb8IvlgL1SSRW9gvBLBaawRAbrRI2aqUtAJrO0lWlHyHEj7NiVMhJ6K7pmmokgak27X5RCOJet6fzibdcsKU8bAbRyXafdHLdvaErYKwQRaS+qZrphSEEx10LMtSSSVVDMVPIPxhJVvETwi2RwSS+bad4UGISALAXTYceNwnEicG2T7MrWLDr8vRrN9EIIolkp+1ohEFm5bss1G1YtLk15AbTipi3RWXHrlsaE/bEXDkKNZtoOxkOJGqmSqLF6Ygt+JVFjsVhAWPZIBEUIKC2KNEdd7CgIVtJhabvsOBE4jqsTDWqOd7tLTQl7BQHRFeu2rLx11eL8lBVAl67ZnJydsL/XmLDfqyvZaY53TClQ5Zoi6phgjh+sbxbmi0XKFQqk/BIrFq5uKc1rEz3CzlMsJNNG1I2gynXYtaQ8mHtHUEWYazTH+8NnY8L5GBHFL1mz+ZN3XLN0dMoJoMvXdla3pZyfNMbtt+oxqZkaEwgmff8MRqjAiplDxSEzQsXMzBAM9hXDYyDPzOPMyDIjz+ASM8qK4YXMhZAxHoRqLFCcCxkeM5cBFBlUUKyygcJ4EHI+UJxnuEWSrmLmvL4TmtfWf+mXozLZAAUxkmfH8IpRQ1JUEqqkoCoCogAcAllSwDUExQwp4pIQl0QxQbCJYBPIJkKUiKqIECcgJggOgUwiKEEEQTCFICGISArQZLYfgs77o5kCIghojNvnArj78rWdH/ru6iXDR+O4R6Vvr1y/paE1Yd9ZH7dP14NF87oNP1cEC/Oh7xVDhYp9xSgp5qJSHDAjUOC8YowpxUOKMcpAXjF7geJsOeRMKVAjpVCNKwVPEBUAzgaKR5nZY6DALDwhWAkCiIhDpaAUMcC47Zqleh1LM+25bM1mAghEIEMSwEwhA0qRIFIuAREicg1BCQISIcOVBNcyRNw2RMqSlDYEVQkil4CoIEoKgWpBSAlQhAiGEGQIIkcQbCnIFARBlc+sfE18r9G83rmhP1t6tHuk9KFbr17c/6YLoJXrO5vnptyf1MSsU/Tt0TyfUDEUM5SCUswiZPYVI6cUjzBztuJZwVioeChQakAp5BTYU4xcoHi0FPBwMVDj5VDlpaASgbxQqbwCPCbT+/7qhYFuZY3mzeWitc8YgoULhmtIGWVmN2S2LSmijiEStkFpQ1BKEKIC5ApBMUNQrRRUJwlxQXCJqEoISgpClSQyBZESAkIQQep4Cs0LGMqVn9iVKX5ow6rF+980AbTq5q7WtpRzVzpqnqBvyfGntA+imDlQzKHiQClWipkVI6cYw4p5gJnHQ0Y+UJwph9zvByoTMucYGA8UD5ZDHioHPCoIJSL4YYhyyIH//euW64JdGs1MF1A3PCMFSVNKsphhMsO2DEpakqoNQXWEypKeaYi0JaneEJSWlSW9uCCqE4RqQYgJIhKCpBQkDUH0/E042vt0/JHJ+5v3jBY/cNOnOrrfcAF09c1di9pSzl2piDlf34rpIWgUM7giaBAq9kPF+VCxpxjlUPFQyLxfKQwGzOPlUPV7vuorBmoUQJ5AYwHzECseDaFyppCKmdln5jtW66UijUbzxnLJ2s1kgEgIIl+FQkLESFDCIKphcBJA1JEi6VqiwZKi3iCKC4FaSdQsBdUIgiUFuVJQRAqyxETkkyC9XDddGCn4O7pHSx+46VOLtr5hAmjV+i0nz612/yfpmi36Frx5hIoPLjNxqMAh87hiHlIK4yFzPlQ84Ie8P1ScCZlHyyH35X3VVw7CUSEoHzKPMvP4HdcsK+vW1Gg0M0pArXnWYiBuCpEMGVFLUjJqygZbUqMkSkhBaVNSkxRULwkxISguiKolUVwKUCVgXC/RvdmMev7+XRnvg+uuXPzkMRdAq27uOrM97dyZcM063fRHj4MuFGZGoFgFIfuBYlbM2VDxPqXQHzCPlEM+UArUgTBUY4ow4ofoLQbhQKh4XAjyQ6WKYL98x7Una6+MRqPRHAUuvvFJApmWIYSjFFtSUJVjiFpTUCMBaUOKhG2IJktSk0GUEgL1kmi2EFRlCCJDkmmIQ6tyWjIdXcY8f3BnpvihdVd2PHzMBNA1G7re2ZZyfxx3jLRu8leG4oqoUQyEioNAcT5UqhAqFELmA6HifeFE7Ey+HO4pBWqYCMO+4gOK5KAB5YeK+burl+iiVBqNRjMNuGzNZmEIooCkKTisNQU1MaPaNkR11JItlqQGKSgtBc2WRE0Ty3BRo/K/MbErFdq59MoZLwaZ7oz3kTWf6vj9URdAn75167ltKff7UVumdFNXYmoCxQiV4lAhDJlHQsWDSnE2YB7wQ94ThjzoMw95vtqbK4f9gjAeAiMq4NHvXbdULztpNBqNBhffsNkigYQkSjMQj1my3jVFiymoRgqqMSW1GYJqBVFcCqqVRCkpIGUl/4COWZogXwpH9ox4F31nxaJfHTUB9LnvPndha8rZ6JoyedwLm4l/AsUchMoPFKtA8ahi3h0q7vdD7vP8cLeveEAx9hd8tcdXnCFU8tPccc1SX3dDjUaj0RxtLlmz2RREDhi2ISntGqJVCjSbUtS6hmg3JdVLQQ2CqNUQlDL+//bu5yeqK4oD+Dnn3vfmzQhMRgH5oYCg2Ipd9j9pUos0JjVgN41pF3Vjumhc2JXpj0WB2qQJSJMu+190W4dGihSVERQEgWHmzXv3ntPFDAtC01RrLNbz+Qvez9xv7nnnPEKyhgLb+ML7dchJ1dRv3duIR74ZOf3zvw5AH03dOddTiG5mA5N71S8MN0pRzCKOpepYyp6l4uplqD9SlrVq6hfLiS+BwKoHWPKOV6yhJGXmae12UkopdYANT9xGa5CYISTEo5agBxCONIX2WDagvsauUq8l7DWEWUvYYgkjIsT/y+9Vqqmv3t+IL349cnrmuQLQ+fEiFg7Z0d5C9qtsQJmDuvLvnoAAgPP1rijHXPMsy55l3TGspp4XHMtK4mWlnLiFOOVVRFx3LE9+vHS2oq+MUkqp1y4sTRazBNAqAIcji21NoT0RGuy0hB2BoQFL0GqIjhiCDksYGiK0Bvesuwc1F8QpJ/c2qpfXd9z49KUh+ccBaHiyiIez9uO+QvZ6JqDgIJxQ45sbST2nzov3IsueZcF5Wak6P19zXPICS5WU73qWdRapOK7GP334tu7aKKWUUs/onW9/QUuHIkOQMwCHc6HpNwjHI0vHosCctITthrDfIHZZgyY0FBhCPCibSDXHfnG9+ul61d24Nbo/BO07zAs3Z6kQ2SvHC9G10BK9rHDTGM4njqWSet72DE8d85xjKcUp399O/IJneSQCix5ghUCcY+Dp0SENOEoppdRLdn6yiIRAiGgBpMMi9hFie3NkBiJLPZaw2xIOGsJCYKjZ1gdP4sscNpk45gcb8dXHO+kXt8b2dlPvOYSRyVk62hR81p3PXA0MmRcWcGC3PMXgWHYcy0PP8iT1cj/xfNexrJQTnq8kvgQIayK0emvsTe2SUkoppV5xwxO/hQi+DQDbciF1NoXmlCXsCA0NBAZ7DOERS9hVHwOwt8z2IqSefWkzvvao7D6fGj3D+wLQhe9nqT0XXO/OR58YwmcKP7udU6lnTj2nKcu2Z/ndsSzFKc/Fzi86hsWd1M+LyKYXrMyMDdX0sVBKKaVeb+fGixlDkkPA/KHQDASEJ6KA+iNLJy1htyEctITNoaEgMETP09HmWXxpM77xuJJe+eGDeghCAICRiV/Dzpboy658NGYI/7LstdtB5bykqeenjmXLeZlzLItV5xe2a+4uCzxwDAuIssWMfmr0jJanlFJKKfVcRiZnkVCMALZYgn5CON6csQNZS/3WUK8lfMMStgSG8tZg8HedbJ5FHm7G48tb8eWpsbcSHJ68ne1uzkx05aPzAICN+TeJYym5+r+k5hPHCzWWe5uxmxORRyywPD06VNZbo5RSSqn/0nsTxSZL0IkI7fmMHcxY6muU1wYsYZsl7LaGMraRjJa3ajNLm/FFfP+74qXWXHDG1UtWDyop33EsayxSnhk7G+ulVUoppdSr6N2J25ElbLKErTlLg5awJzB0am0nmf0T3ldPg3fRyRAAAAAASUVORK5CYII=;" vertex="1" parent="1">
                    <mxGeometry x="330" y="20" width="360.66" height="100" as="geometry"/>
                </mxCell>
                <mxCell id="3" value="API" style="shape=tape;whiteSpace=wrap;html=1;strokeWidth=2;size=0.19;fillColor=#0050ef;strokeColor=#001DBC;fontColor=#ffffff;gradientColor=#9933FF;" vertex="1" parent="1">
                    <mxGeometry x="10" y="165" width="100" height="65" as="geometry"/>
                </mxCell>
                <mxCell id="4" value="START" style="strokeWidth=2;html=1;shape=mxgraph.flowchart.start_1;whiteSpace=wrap;fillColor=#080A2A;gradientColor=#9933FF;" vertex="1" parent="1">
                    <mxGeometry x="180" y="25" width="100" height="60" as="geometry"/>
                </mxCell>
                <mxCell id="5" value="&lt;br&gt;POST&lt;br&gt;Spelarnas namn" style="html=1;strokeWidth=2;shape=manualInput;whiteSpace=wrap;rounded=1;size=26;arcSize=11;fillColor=#080A2A;gradientColor=#9933FF;" vertex="1" parent="1">
                    <mxGeometry x="180" y="150" width="100" height="60" as="geometry"/>
                </mxCell>
                <mxCell id="6" value="Repositories" style="shape=tape;whiteSpace=wrap;html=1;strokeWidth=2;size=0.19;fillColor=#0050ef;strokeColor=#001DBC;fontColor=#ffffff;gradientColor=#9933FF;" vertex="1" parent="1">
                    <mxGeometry x="10" y="250" width="100" height="65" as="geometry"/>
                </mxCell>
                <mxCell id="7" value="&lt;br&gt;Ludo2&lt;br&gt;Db" style="strokeWidth=2;html=1;shape=mxgraph.flowchart.database;whiteSpace=wrap;fillColor=#080A2A;gradientColor=#9933FF;" vertex="1" parent="1">
                    <mxGeometry x="290" y="570" width="60" height="60" as="geometry"/>
                </mxCell>
            </root>
        </mxGraphModel>
    </diagram>
</mxfile>